<svg width="160" height="48" viewBox="0 0 160 48" fill="none" xmlns="http://www.w3.org/2000/svg">
<path d="M55.8705 19.5235H51.2805L51.1005 18.0295C51.2565 17.8255 51.5865 17.6275 52.0905 17.4355V9.2095C51.5985 9.0295 51.2685 8.8255 51.1005 8.5975L51.2805 7.1035H55.2945C57.2265 7.1035 58.7565 7.6435 59.8845 8.7235C61.0245 9.8035 61.5945 11.3935 61.5945 13.4935C61.5945 15.5815 61.0785 17.1115 60.0465 18.0835C59.0265 19.0435 57.6345 19.5235 55.8705 19.5235ZM54.6825 17.5615H55.9785C56.8785 17.5615 57.5865 17.2915 58.1025 16.7515C58.6305 16.1995 58.8945 15.1375 58.8945 13.5655C58.8945 10.5655 57.7605 9.0655 55.4925 9.0655H54.6825V17.5615ZM66.7169 19.6675C65.3009 19.6675 64.2509 19.2895 63.5669 18.5335C62.8829 17.7775 62.5409 16.6375 62.5409 15.1135C62.5409 13.5775 62.9189 12.4075 63.6749 11.6035C64.4429 10.7875 65.5409 10.3795 66.9689 10.3795C68.3969 10.3795 69.4529 10.7395 70.1369 11.4595C70.8329 12.1795 71.1809 13.3075 71.1809 14.8435C71.1809 16.3675 70.7909 17.5555 70.0109 18.4075C69.2429 19.2475 68.1449 19.6675 66.7169 19.6675ZM65.1329 14.9515C65.1329 16.8715 65.7089 17.8315 66.8609 17.8315C67.4489 17.8315 67.8809 17.6155 68.1569 17.1835C68.4449 16.7395 68.5889 16.0195 68.5889 15.0235C68.5889 13.1515 68.0009 12.2155 66.8249 12.2155C66.2489 12.2155 65.8229 12.4255 65.5469 12.8455C65.2709 13.2535 65.1329 13.9555 65.1329 14.9515ZM76.3338 12.2155C75.2298 12.2155 74.6778 13.1635 74.6778 15.0595C74.6778 16.0195 74.8278 16.6915 75.1278 17.0755C75.4398 17.4475 75.8838 17.6335 76.4598 17.6335C77.3718 17.6335 78.1758 17.5495 78.8718 17.3815L79.4118 18.7675C79.0278 19.0195 78.5118 19.2355 77.8638 19.4155C77.2158 19.5835 76.5858 19.6675 75.9738 19.6675C73.3818 19.6675 72.0858 18.1675 72.0858 15.1675C72.0858 13.4155 72.5358 12.1555 73.4358 11.3875C74.2398 10.7155 75.2178 10.3795 76.3698 10.3795C77.5218 10.3795 78.4818 10.5955 79.2498 11.0275C79.2618 11.1475 79.2678 11.2615 79.2678 11.3695C79.2678 12.0535 79.1118 12.7015 78.7998 13.3135H77.2158C77.0478 13.0135 76.9458 12.6535 76.9098 12.2335C76.7658 12.2215 76.5738 12.2155 76.3338 12.2155ZM83.4833 8.2555V10.5235H86.0573V12.0355H83.4833V16.5895C83.4833 16.9735 83.5373 17.2555 83.6453 17.4355C83.7533 17.6035 84.0113 17.6875 84.4193 17.6875C84.8273 17.6875 85.2653 17.5975 85.7333 17.4175L86.2733 18.8215C85.3493 19.2895 84.4013 19.5235 83.4293 19.5235C82.4693 19.5235 81.8153 19.3195 81.4673 18.9115C81.1313 18.4915 80.9633 17.8855 80.9633 17.0935V12.0355H80.1533L79.9553 10.9375C80.1473 10.7095 80.5433 10.4815 81.1433 10.2535C81.2873 9.2695 81.6293 8.6035 82.1693 8.2555H83.4833ZM91.0626 19.6675C89.6466 19.6675 88.5966 19.2895 87.9126 18.5335C87.2286 17.7775 86.8866 16.6375 86.8866 15.1135C86.8866 13.5775 87.2646 12.4075 88.0206 11.6035C88.7886 10.7875 89.8866 10.3795 91.3146 10.3795C92.7426 10.3795 93.7986 10.7395 94.4826 11.4595C95.1786 12.1795 95.5266 13.3075 95.5266 14.8435C95.5266 16.3675 95.1366 17.5555 94.3566 18.4075C93.5886 19.2475 92.4906 19.6675 91.0626 19.6675ZM89.4786 14.9515C89.4786 16.8715 90.0546 17.8315 91.2066 17.8315C91.7946 17.8315 92.2266 17.6155 92.5026 17.1835C92.7906 16.7395 92.9346 16.0195 92.9346 15.0235C92.9346 13.1515 92.3466 12.2155 91.1706 12.2155C90.5946 12.2155 90.1686 12.4255 89.8926 12.8455C89.6166 13.2535 89.4786 13.9555 89.4786 14.9515ZM101.85 12.7375C100.938 12.7375 100.308 12.9115 99.9595 13.2595V17.3815C100.932 17.5615 101.598 17.8135 101.958 18.1375L101.778 19.5235H96.6295L96.4495 18.1375C96.6175 17.9095 96.9475 17.7055 97.4395 17.5255V12.5215C97.0195 12.3775 96.6895 12.1735 96.4495 11.9095L96.6295 10.5235C97.2895 10.3795 97.8835 10.3075 98.4115 10.3075C98.9395 10.3075 99.3775 10.3195 99.7255 10.3435V11.4775C100.002 11.1535 100.356 10.8895 100.788 10.6855C101.22 10.4695 101.61 10.3615 101.958 10.3615C102.318 10.3615 102.564 10.3915 102.696 10.4515L102.642 12.7915C102.402 12.7555 102.138 12.7375 101.85 12.7375ZM107.028 11.9995C106.236 11.9995 105.84 12.2335 105.84 12.7015C105.84 13.1455 106.254 13.4755 107.082 13.6915L108.504 14.0695C109.968 14.4535 110.7 15.2995 110.7 16.6075C110.7 17.5075 110.382 18.2455 109.746 18.8215C109.122 19.3855 108.12 19.6675 106.74 19.6675C105.372 19.6675 104.304 19.4755 103.536 19.0915C103.524 18.9595 103.518 18.8275 103.518 18.6955C103.518 18.0355 103.65 17.4415 103.914 16.9135H105.408C105.564 17.2015 105.666 17.5015 105.714 17.8135C105.954 17.8855 106.296 17.9215 106.74 17.9215C107.796 17.9215 108.324 17.6215 108.324 17.0215C108.324 16.8295 108.252 16.6735 108.108 16.5535C107.964 16.4215 107.682 16.2955 107.262 16.1755L105.84 15.7615C105.108 15.5575 104.538 15.2575 104.13 14.8615C103.722 14.4535 103.518 13.8595 103.518 13.0795C103.518 12.2875 103.836 11.6395 104.472 11.1355C105.108 10.6315 106.014 10.3795 107.19 10.3795C108.378 10.3795 109.38 10.5535 110.196 10.9015C110.208 11.0215 110.214 11.1415 110.214 11.2615C110.214 11.8855 110.082 12.4615 109.818 12.9895H108.342C108.186 12.7135 108.084 12.4255 108.036 12.1255C107.7 12.0415 107.364 11.9995 107.028 11.9995ZM120.092 15.2035H119.282V17.3275C120.158 17.5195 120.704 17.7535 120.92 18.0295L120.74 19.5235H115.88L115.7 18.0295C115.856 17.8255 116.186 17.6275 116.69 17.4355V9.2095C116.198 9.0295 115.868 8.8255 115.7 8.5975L115.88 7.1035H120.65C122.318 7.1275 123.56 7.4335 124.376 8.0215C125.204 8.5975 125.618 9.6295 125.618 11.1175C125.618 13.8415 123.776 15.2035 120.092 15.2035ZM120.362 9.0655H119.282V13.2415H120.488C121.304 13.2415 121.91 13.0795 122.306 12.7555C122.714 12.4315 122.918 11.8735 122.918 11.0815C122.918 10.2775 122.696 9.7435 122.252 9.4795C121.82 9.2035 121.19 9.0655 120.362 9.0655ZM130.49 19.6675C129.074 19.6675 128.024 19.2895 127.34 18.5335C126.656 17.7775 126.314 16.6375 126.314 15.1135C126.314 13.5775 126.692 12.4075 127.448 11.6035C128.216 10.7875 129.314 10.3795 130.742 10.3795C132.17 10.3795 133.226 10.7395 133.91 11.4595C134.606 12.1795 134.954 13.3075 134.954 14.8435C134.954 16.3675 134.564 17.5555 133.784 18.4075C133.016 19.2475 131.918 19.6675 130.49 19.6675ZM128.906 14.9515C128.906 16.8715 129.482 17.8315 130.634 17.8315C131.222 17.8315 131.654 17.6155 131.93 17.1835C132.218 16.7395 132.362 16.0195 132.362 15.0235C132.362 13.1515 131.774 12.2155 130.598 12.2155C130.022 12.2155 129.596 12.4255 129.32 12.8455C129.044 13.2535 128.906 13.9555 128.906 14.9515ZM136.093 10.5235C136.765 10.3675 137.389 10.2895 137.965 10.2895C138.541 10.2895 139.027 10.3075 139.423 10.3435V17.5255C139.891 17.7055 140.221 17.9095 140.413 18.1375L140.233 19.5235H136.093L135.913 18.1375C136.081 17.9095 136.411 17.7055 136.903 17.5255V12.5215C136.483 12.3775 136.153 12.1735 135.913 11.9095L136.093 10.5235ZM138.127 9.2815C137.131 9.2815 136.633 8.8315 136.633 7.9315C136.633 7.0195 137.131 6.5635 138.127 6.5635C139.135 6.5635 139.639 7.0195 139.639 7.9315C139.639 8.8315 139.135 9.2815 138.127 9.2815ZM141.313 10.5235C141.973 10.3795 142.567 10.3075 143.095 10.3075C143.623 10.3075 144.061 10.3195 144.409 10.3435V11.2435C144.709 10.9915 145.105 10.7875 145.597 10.6315C146.101 10.4635 146.581 10.3795 147.037 10.3795C148.213 10.3795 149.035 10.6555 149.503 11.2075C149.983 11.7595 150.223 12.7135 150.223 14.0695V17.5255C150.691 17.7055 151.021 17.9095 151.213 18.1375L151.033 19.5235H146.893L146.713 18.1375C146.881 17.9095 147.211 17.7055 147.703 17.5255V13.9615C147.703 13.3135 147.595 12.8815 147.379 12.6655C147.175 12.4375 146.803 12.3235 146.263 12.3235C145.723 12.3235 145.183 12.5155 144.643 12.8995V17.5255C145.111 17.7055 145.441 17.9095 145.633 18.1375L145.453 19.5235H141.313L141.133 18.1375C141.301 17.9095 141.631 17.7055 142.123 17.5255V12.5215C141.703 12.3775 141.373 12.1735 141.133 11.9095L141.313 10.5235ZM155.114 8.2555V10.5235H157.688V12.0355H155.114V16.5895C155.114 16.9735 155.168 17.2555 155.276 17.4355C155.384 17.6035 155.642 17.6875 156.05 17.6875C156.458 17.6875 156.896 17.5975 157.364 17.4175L157.904 18.8215C156.98 19.2895 156.032 19.5235 155.06 19.5235C154.1 19.5235 153.446 19.3195 153.098 18.9115C152.762 18.4915 152.594 17.8855 152.594 17.0935V12.0355H151.784L151.586 10.9375C151.778 10.7095 152.174 10.4815 152.774 10.2535C152.918 9.2695 153.26 8.6035 153.8 8.2555H155.114Z" fill="#1E3A8A"/>
<path d="M54.1975 31.5235H51.9025L51.8125 30.7765C51.8905 30.6745 52.0555 30.5755 52.3075 30.4795V26.3665C52.0615 26.2765 51.8965 26.1745 51.8125 26.0605L51.9025 25.3135H53.9095C54.8755 25.3135 55.6405 25.5835 56.2045 26.1235C56.7745 26.6635 57.0595 27.4585 57.0595 28.5085C57.0595 29.5525 56.8015 30.3175 56.2855 30.8035C55.7755 31.2835 55.0795 31.5235 54.1975 31.5235ZM53.6035 30.5425H54.2515C54.7015 30.5425 55.0555 30.4075 55.3135 30.1375C55.5775 29.8615 55.7095 29.3305 55.7095 28.5445C55.7095 27.0445 55.1425 26.2945 54.0085 26.2945H53.6035V30.5425ZM57.7217 27.6895C57.7217 27.5995 57.7247 27.5035 57.7307 27.4015C58.2887 27.1015 58.8887 26.9515 59.5307 26.9515C60.1727 26.9515 60.6317 27.0745 60.9077 27.3205C61.1897 27.5605 61.3307 27.9625 61.3307 28.5265V30.4435C61.5407 30.4855 61.7057 30.5365 61.8257 30.5965V31.3795C61.5197 31.5235 61.0817 31.5955 60.5117 31.5955C60.4517 31.4395 60.4007 31.2505 60.3587 31.0285C60.1007 31.4065 59.6327 31.5955 58.9547 31.5955C58.5527 31.5955 58.2077 31.4785 57.9197 31.2445C57.6377 31.0105 57.4967 30.6925 57.4967 30.2905C57.4967 29.8885 57.6287 29.5735 57.8927 29.3455C58.1627 29.1115 58.5617 28.9945 59.0897 28.9945H60.0707V28.5625C60.0707 28.0945 59.8217 27.8605 59.3237 27.8605C59.1377 27.8605 58.9847 27.8785 58.8647 27.9145C58.8527 28.1665 58.8167 28.3615 58.7567 28.4995H57.8747C57.7727 28.2895 57.7217 28.0195 57.7217 27.6895ZM59.3417 30.6775C59.6477 30.6775 59.8907 30.5875 60.0707 30.4075V29.6695H59.4407C59.0087 29.6695 58.7927 29.8345 58.7927 30.1645C58.7927 30.3145 58.8377 30.4375 58.9277 30.5335C59.0237 30.6295 59.1617 30.6775 59.3417 30.6775ZM63.9472 27.7615C63.5512 27.7615 63.3532 27.8785 63.3532 28.1125C63.3532 28.3345 63.5602 28.4995 63.9742 28.6075L64.6852 28.7965C65.4172 28.9885 65.7832 29.4115 65.7832 30.0655C65.7832 30.5155 65.6242 30.8845 65.3062 31.1725C64.9942 31.4545 64.4932 31.5955 63.8032 31.5955C63.1192 31.5955 62.5852 31.4995 62.2012 31.3075C62.1952 31.2415 62.1922 31.1755 62.1922 31.1095C62.1922 30.7795 62.2582 30.4825 62.3902 30.2185H63.1372C63.2152 30.3625 63.2662 30.5125 63.2902 30.6685C63.4102 30.7045 63.5812 30.7225 63.8032 30.7225C64.3312 30.7225 64.5952 30.5725 64.5952 30.2725C64.5952 30.1765 64.5592 30.0985 64.4872 30.0385C64.4152 29.9725 64.2742 29.9095 64.0642 29.8495L63.3532 29.6425C62.9872 29.5405 62.7022 29.3905 62.4982 29.1925C62.2942 28.9885 62.1922 28.6915 62.1922 28.3015C62.1922 27.9055 62.3512 27.5815 62.6692 27.3295C62.9872 27.0775 63.4402 26.9515 64.0282 26.9515C64.6222 26.9515 65.1232 27.0385 65.5312 27.2125C65.5372 27.2725 65.5402 27.3325 65.5402 27.3925C65.5402 27.7045 65.4742 27.9925 65.3422 28.2565H64.6042C64.5262 28.1185 64.4752 27.9745 64.4512 27.8245C64.2832 27.7825 64.1152 27.7615 63.9472 27.7615ZM66.1897 25.1335C66.5257 25.0555 66.8377 25.0165 67.1257 25.0165C67.4137 25.0165 67.6567 25.0255 67.8547 25.0435V27.2935C67.9987 27.1975 68.1907 27.1165 68.4307 27.0505C68.6707 26.9845 68.8837 26.9515 69.0697 26.9515C69.6637 26.9515 70.0747 27.0955 70.3027 27.3835C70.5307 27.6715 70.6447 28.1095 70.6447 28.6975V30.5245C70.8787 30.6145 71.0437 30.7165 71.1397 30.8305L71.0497 31.5235H68.9797L68.8897 30.8305C68.9737 30.7165 69.1387 30.6145 69.3847 30.5245V28.7425C69.3847 28.4185 69.3307 28.2025 69.2227 28.0945C69.1207 27.9805 68.9317 27.9235 68.6557 27.9235C68.3797 27.9235 68.1127 28.0195 67.8547 28.2115V30.5245C68.0887 30.6145 68.2537 30.7165 68.3497 30.8305L68.2597 31.5235H66.1897L66.0997 30.8305C66.1837 30.7165 66.3487 30.6145 66.5947 30.5245V26.1325C66.3847 26.0605 66.2197 25.9585 66.0997 25.8265L66.1897 25.1335ZM71.2658 25.1335C71.6018 25.0555 71.9138 25.0165 72.2018 25.0165C72.4898 25.0165 72.7328 25.0255 72.9308 25.0435V27.2935C73.0568 27.2035 73.2248 27.1255 73.4348 27.0595C73.6448 26.9875 73.8458 26.9515 74.0378 26.9515C74.6918 26.9515 75.1508 27.1195 75.4148 27.4555C75.6788 27.7915 75.8108 28.3645 75.8108 29.1745C75.8108 29.6245 75.7478 30.0145 75.6218 30.3445C75.5018 30.6685 75.3368 30.9175 75.1268 31.0915C74.7308 31.4275 74.2628 31.5955 73.7228 31.5955C73.3148 31.5955 72.9128 31.4935 72.5168 31.2895C72.4028 31.4455 72.2708 31.5235 72.1208 31.5235H71.6708V26.1325C71.4608 26.0605 71.2958 25.9585 71.1758 25.8265L71.2658 25.1335ZM73.6508 30.6775C74.2268 30.6775 74.5148 30.1945 74.5148 29.2285C74.5148 28.7185 74.4638 28.3735 74.3618 28.1935C74.2658 28.0075 74.0948 27.9145 73.8488 27.9145C73.4768 27.9145 73.1708 28.0135 72.9308 28.2115V30.5245C73.1888 30.6265 73.4288 30.6775 73.6508 30.6775ZM78.3678 31.5955C77.6598 31.5955 77.1348 31.4065 76.7928 31.0285C76.4508 30.6505 76.2798 30.0805 76.2798 29.3185C76.2798 28.5505 76.4688 27.9655 76.8468 27.5635C77.2308 27.1555 77.7798 26.9515 78.4938 26.9515C79.2078 26.9515 79.7358 27.1315 80.0778 27.4915C80.4258 27.8515 80.5998 28.4155 80.5998 29.1835C80.5998 29.9455 80.4048 30.5395 80.0148 30.9655C79.6308 31.3855 79.0818 31.5955 78.3678 31.5955ZM77.5758 29.2375C77.5758 30.1975 77.8638 30.6775 78.4398 30.6775C78.7338 30.6775 78.9498 30.5695 79.0878 30.3535C79.2318 30.1315 79.3038 29.7715 79.3038 29.2735C79.3038 28.3375 79.0098 27.8695 78.4218 27.8695C78.1338 27.8695 77.9208 27.9745 77.7828 28.1845C77.6448 28.3885 77.5758 28.7395 77.5758 29.2375ZM81.2412 27.6895C81.2412 27.5995 81.2442 27.5035 81.2502 27.4015C81.8082 27.1015 82.4082 26.9515 83.0502 26.9515C83.6922 26.9515 84.1512 27.0745 84.4272 27.3205C84.7092 27.5605 84.8502 27.9625 84.8502 28.5265V30.4435C85.0602 30.4855 85.2252 30.5365 85.3452 30.5965V31.3795C85.0392 31.5235 84.6012 31.5955 84.0312 31.5955C83.9712 31.4395 83.9202 31.2505 83.8782 31.0285C83.6202 31.4065 83.1522 31.5955 82.4742 31.5955C82.0722 31.5955 81.7272 31.4785 81.4392 31.2445C81.1572 31.0105 81.0162 30.6925 81.0162 30.2905C81.0162 29.8885 81.1482 29.5735 81.4122 29.3455C81.6822 29.1115 82.0812 28.9945 82.6092 28.9945H83.5902V28.5625C83.5902 28.0945 83.3412 27.8605 82.8432 27.8605C82.6572 27.8605 82.5042 27.8785 82.3842 27.9145C82.3722 28.1665 82.3362 28.3615 82.2762 28.4995H81.3942C81.2922 28.2895 81.2412 28.0195 81.2412 27.6895ZM82.8612 30.6775C83.1672 30.6775 83.4102 30.5875 83.5902 30.4075V29.6695H82.9602C82.5282 29.6695 82.3122 29.8345 82.3122 30.1645C82.3122 30.3145 82.3572 30.4375 82.4472 30.5335C82.5432 30.6295 82.6812 30.6775 82.8612 30.6775ZM88.3667 28.1305C87.9107 28.1305 87.5957 28.2175 87.4217 28.3915V30.4525C87.9077 30.5425 88.2407 30.6685 88.4207 30.8305L88.3307 31.5235H85.7567L85.6667 30.8305C85.7507 30.7165 85.9157 30.6145 86.1617 30.5245V28.0225C85.9517 27.9505 85.7867 27.8485 85.6667 27.7165L85.7567 27.0235C86.0867 26.9515 86.3837 26.9155 86.6477 26.9155C86.9117 26.9155 87.1307 26.9215 87.3047 26.9335V27.5005C87.4427 27.3385 87.6197 27.2065 87.8357 27.1045C88.0517 26.9965 88.2467 26.9425 88.4207 26.9425C88.6007 26.9425 88.7237 26.9575 88.7897 26.9875L88.7627 28.1575C88.6427 28.1395 88.5107 28.1305 88.3667 28.1305ZM91.496 25.1335C91.838 25.0555 92.165 25.0165 92.477 25.0165C92.789 25.0165 93.056 25.0255 93.278 25.0435V30.4435C93.458 30.4735 93.623 30.5245 93.773 30.5965V31.3075C93.413 31.4995 92.957 31.5955 92.405 31.5955C92.345 31.5655 92.285 31.5115 92.225 31.4335C92.171 31.3555 92.141 31.2805 92.135 31.2085C92.003 31.3165 91.832 31.4095 91.622 31.4875C91.412 31.5595 91.205 31.5955 91.001 31.5955C90.353 31.5955 89.882 31.4215 89.588 31.0735C89.3 30.7195 89.156 30.1435 89.156 29.3455C89.156 28.4395 89.378 27.8035 89.822 27.4375C90.212 27.1135 90.692 26.9515 91.262 26.9515C91.514 26.9515 91.766 26.9815 92.018 27.0415V26.1505C91.742 26.0725 91.538 25.9645 91.406 25.8265L91.496 25.1335ZM91.19 30.6775C91.532 30.6775 91.808 30.5755 92.018 30.3715V27.9595C91.772 27.8995 91.511 27.8695 91.235 27.8695C90.959 27.8695 90.758 27.9925 90.632 28.2385C90.512 28.4785 90.452 28.8415 90.452 29.3275C90.452 29.8075 90.512 30.1525 90.632 30.3625C90.752 30.5725 90.938 30.6775 91.19 30.6775ZM98.4196 29.3635H98.0146V30.4255C98.4526 30.5215 98.7256 30.6385 98.8336 30.7765L98.7436 31.5235H96.3136L96.2236 30.7765C96.3016 30.6745 96.4666 30.5755 96.7186 30.4795V26.3665C96.4726 26.2765 96.3076 26.1745 96.2236 26.0605L96.3136 25.3135H98.6986C99.5326 25.3255 100.154 25.4785 100.562 25.7725C100.976 26.0605 101.183 26.5765 101.183 27.3205C101.183 28.6825 100.262 29.3635 98.4196 29.3635ZM98.5546 26.2945H98.0146V28.3825H98.6176C99.0256 28.3825 99.3286 28.3015 99.5266 28.1395C99.7306 27.9775 99.8326 27.6985 99.8326 27.3025C99.8326 26.9005 99.7216 26.6335 99.4996 26.5015C99.2836 26.3635 98.9686 26.2945 98.5546 26.2945ZM101.808 27.6895C101.808 27.5995 101.811 27.5035 101.817 27.4015C102.375 27.1015 102.975 26.9515 103.617 26.9515C104.259 26.9515 104.718 27.0745 104.994 27.3205C105.276 27.5605 105.417 27.9625 105.417 28.5265V30.4435C105.627 30.4855 105.792 30.5365 105.912 30.5965V31.3795C105.606 31.5235 105.168 31.5955 104.598 31.5955C104.538 31.4395 104.487 31.2505 104.445 31.0285C104.187 31.4065 103.719 31.5955 103.041 31.5955C102.639 31.5955 102.294 31.4785 102.006 31.2445C101.724 31.0105 101.583 30.6925 101.583 30.2905C101.583 29.8885 101.715 29.5735 101.979 29.3455C102.249 29.1115 102.648 28.9945 103.176 28.9945H104.157V28.5625C104.157 28.0945 103.908 27.8605 103.41 27.8605C103.224 27.8605 103.071 27.8785 102.951 27.9145C102.939 28.1665 102.903 28.3615 102.843 28.4995H101.961C101.859 28.2895 101.808 28.0195 101.808 27.6895ZM103.428 30.6775C103.734 30.6775 103.977 30.5875 104.157 30.4075V29.6695H103.527C103.095 29.6695 102.879 29.8345 102.879 30.1645C102.879 30.3145 102.924 30.4375 103.014 30.5335C103.11 30.6295 103.248 30.6775 103.428 30.6775ZM106.323 27.0235C106.653 26.9515 106.95 26.9155 107.214 26.9155C107.478 26.9155 107.697 26.9215 107.871 26.9335V27.3835C108.021 27.2575 108.219 27.1555 108.465 27.0775C108.717 26.9935 108.957 26.9515 109.185 26.9515C109.773 26.9515 110.184 27.0895 110.418 27.3655C110.658 27.6415 110.778 28.1185 110.778 28.7965V30.5245C111.012 30.6145 111.177 30.7165 111.273 30.8305L111.183 31.5235H109.113L109.023 30.8305C109.107 30.7165 109.272 30.6145 109.518 30.5245V28.7425C109.518 28.4185 109.464 28.2025 109.356 28.0945C109.254 27.9805 109.068 27.9235 108.798 27.9235C108.528 27.9235 108.258 28.0195 107.988 28.2115V30.5245C108.222 30.6145 108.387 30.7165 108.483 30.8305L108.393 31.5235H106.323L106.233 30.8305C106.317 30.7165 106.482 30.6145 106.728 30.5245V28.0225C106.518 27.9505 106.353 27.8485 106.233 27.7165L106.323 27.0235ZM113.746 31.5955C113.026 31.5955 112.483 31.4035 112.117 31.0195C111.757 30.6355 111.577 30.0775 111.577 29.3455C111.577 28.9015 111.64 28.5205 111.766 28.2025C111.892 27.8785 112.063 27.6295 112.279 27.4555C112.699 27.1195 113.188 26.9515 113.746 26.9515C114.304 26.9515 114.73 27.0955 115.024 27.3835C115.324 27.6655 115.474 28.1755 115.474 28.9135C115.474 29.3455 115.261 29.5615 114.835 29.5615H112.882C112.906 29.9395 113.002 30.2065 113.17 30.3625C113.344 30.5185 113.617 30.5965 113.989 30.5965C114.193 30.5965 114.388 30.5725 114.574 30.5245C114.76 30.4765 114.895 30.4285 114.979 30.3805L115.105 30.3085L115.375 31.0285C115.339 31.0705 115.285 31.1245 115.213 31.1905C115.147 31.2505 114.973 31.3345 114.691 31.4425C114.415 31.5445 114.1 31.5955 113.746 31.5955ZM114.313 28.7605C114.325 28.6765 114.331 28.5745 114.331 28.4545C114.331 28.3345 114.283 28.2085 114.187 28.0765C114.091 27.9385 113.923 27.8695 113.683 27.8695C113.449 27.8695 113.269 27.9415 113.143 28.0855C113.017 28.2295 112.933 28.4725 112.891 28.8145L114.313 28.7605ZM115.918 25.1335C116.254 25.0555 116.566 25.0165 116.854 25.0165C117.142 25.0165 117.385 25.0255 117.583 25.0435V30.5245C117.817 30.6145 117.982 30.7165 118.078 30.8305L117.988 31.5235H115.918L115.828 30.8305C115.912 30.7165 116.077 30.6145 116.323 30.5245V26.1325C116.113 26.0605 115.948 25.9585 115.828 25.8265L115.918 25.1335Z" fill="#6277B4"/>
<path fill-rule="evenodd" clip-rule="evenodd" d="M15.9952 44.1631V37.9895C20.0167 37.9895 23.8735 36.4871 26.7171 33.8128C29.5607 31.1385 31.1582 27.5113 31.1582 23.7292C31.1582 19.9472 29.5607 16.32 26.7171 13.6457C23.8735 10.9714 20.0167 9.46893 15.9952 9.46893V3.81122L15.9952 3.81124L15.9952 44.1631ZM19.0933 46.7223C22.8926 48.8343 27.7744 48.2743 30.9995 45.0423L44.9462 31.0658C48.8473 27.1564 48.8473 20.818 44.9462 16.9086L30.9995 2.93205C28.001 -0.0729159 23.5704 -0.76811 19.9092 0.846465C24.9947 1.61582 29.7324 3.87161 33.4211 7.34073C38.0427 11.6872 40.6392 17.5824 40.6392 23.7292C40.6392 29.8761 38.0427 35.7712 33.4211 40.1177C29.5358 43.7717 24.4868 46.0796 19.0933 46.7223ZM7.23292 35.3821V12.5923L2.9258 16.9086C-0.975271 20.818 -0.975264 27.1564 2.92581 31.0658L7.23292 35.3821Z" fill="#11EC0D"/>
<rect x="18.3683" y="17.935" width="3.34062" height="13.9061" fill="white"/>
<path d="M28.5037 22.5704C28.5037 25.2561 26.4215 27.3646 23.936 27.3646C21.4506 27.3646 19.3683 25.2561 19.3683 22.5704C19.3683 19.8847 21.4506 17.7762 23.936 17.7762C26.4215 17.7762 28.5037 19.8847 28.5037 22.5704Z" fill="white" stroke="#11EC0D" stroke-width="2"/>
</svg>
