<svg width="158" height="49" viewBox="0 0 158 49" fill="none" xmlns="http://www.w3.org/2000/svg">
<path d="M53.455 22H49.63L49.48 20.755C49.61 20.585 49.885 20.42 50.305 20.26V13.405C49.895 13.255 49.62 13.085 49.48 12.895L49.63 11.65H52.975C54.585 11.65 55.86 12.1 56.8 13C57.75 13.9 58.225 15.225 58.225 16.975C58.225 18.715 57.795 19.99 56.935 20.8C56.085 21.6 54.925 22 53.455 22ZM52.465 20.365H53.545C54.295 20.365 54.885 20.14 55.315 19.69C55.755 19.23 55.975 18.345 55.975 17.035C55.975 14.535 55.03 13.285 53.14 13.285H52.465V20.365ZM62.4936 22.12C61.3136 22.12 60.4386 21.805 59.8686 21.175C59.2986 20.545 59.0136 19.595 59.0136 18.325C59.0136 17.045 59.3286 16.07 59.9586 15.4C60.5986 14.72 61.5136 14.38 62.7036 14.38C63.8936 14.38 64.7736 14.68 65.3436 15.28C65.9236 15.88 66.2136 16.82 66.2136 18.1C66.2136 19.37 65.8886 20.36 65.2386 21.07C64.5986 21.77 63.6836 22.12 62.4936 22.12ZM61.1736 18.19C61.1736 19.79 61.6536 20.59 62.6136 20.59C63.1036 20.59 63.4636 20.41 63.6936 20.05C63.9336 19.68 64.0536 19.08 64.0536 18.25C64.0536 16.69 63.5636 15.91 62.5836 15.91C62.1036 15.91 61.7486 16.085 61.5186 16.435C61.2886 16.775 61.1736 17.36 61.1736 18.19ZM70.5077 15.91C69.5877 15.91 69.1277 16.7 69.1277 18.28C69.1277 19.08 69.2527 19.64 69.5027 19.96C69.7627 20.27 70.1327 20.425 70.6127 20.425C71.3727 20.425 72.0427 20.355 72.6227 20.215L73.0727 21.37C72.7527 21.58 72.3227 21.76 71.7827 21.91C71.2427 22.05 70.7177 22.12 70.2077 22.12C68.0477 22.12 66.9677 20.87 66.9677 18.37C66.9677 16.91 67.3427 15.86 68.0927 15.22C68.7627 14.66 69.5777 14.38 70.5377 14.38C71.4977 14.38 72.2977 14.56 72.9377 14.92C72.9477 15.02 72.9527 15.115 72.9527 15.205C72.9527 15.775 72.8227 16.315 72.5627 16.825H71.2427C71.1027 16.575 71.0177 16.275 70.9877 15.925C70.8677 15.915 70.7077 15.91 70.5077 15.91ZM76.4657 12.61V14.5H78.6107V15.76H76.4657V19.555C76.4657 19.875 76.5107 20.11 76.6007 20.26C76.6907 20.4 76.9057 20.47 77.2457 20.47C77.5857 20.47 77.9507 20.395 78.3407 20.245L78.7907 21.415C78.0207 21.805 77.2307 22 76.4207 22C75.6207 22 75.0757 21.83 74.7857 21.49C74.5057 21.14 74.3657 20.635 74.3657 19.975V15.76H73.6907L73.5257 14.845C73.6857 14.655 74.0157 14.465 74.5157 14.275C74.6357 13.455 74.9207 12.9 75.3707 12.61H76.4657ZM82.7817 22.12C81.6017 22.12 80.7267 21.805 80.1567 21.175C79.5867 20.545 79.3017 19.595 79.3017 18.325C79.3017 17.045 79.6167 16.07 80.2467 15.4C80.8867 14.72 81.8017 14.38 82.9917 14.38C84.1817 14.38 85.0617 14.68 85.6317 15.28C86.2117 15.88 86.5017 16.82 86.5017 18.1C86.5017 19.37 86.1767 20.36 85.5267 21.07C84.8867 21.77 83.9717 22.12 82.7817 22.12ZM81.4617 18.19C81.4617 19.79 81.9417 20.59 82.9017 20.59C83.3917 20.59 83.7517 20.41 83.9817 20.05C84.2217 19.68 84.3417 19.08 84.3417 18.25C84.3417 16.69 83.8517 15.91 82.8717 15.91C82.3917 15.91 82.0367 16.085 81.8067 16.435C81.5767 16.775 81.4617 17.36 81.4617 18.19ZM91.7708 16.345C91.0108 16.345 90.4858 16.49 90.1958 16.78V20.215C91.0058 20.365 91.5608 20.575 91.8608 20.845L91.7108 22H87.4208L87.2708 20.845C87.4108 20.655 87.6858 20.485 88.0958 20.335V16.165C87.7458 16.045 87.4708 15.875 87.2708 15.655L87.4208 14.5C87.9708 14.38 88.4658 14.32 88.9058 14.32C89.3458 14.32 89.7108 14.33 90.0008 14.35V15.295C90.2308 15.025 90.5258 14.805 90.8858 14.635C91.2458 14.455 91.5708 14.365 91.8608 14.365C92.1608 14.365 92.3658 14.39 92.4758 14.44L92.4308 16.39C92.2308 16.36 92.0108 16.345 91.7708 16.345ZM96.0863 15.73C95.4263 15.73 95.0963 15.925 95.0963 16.315C95.0963 16.685 95.4413 16.96 96.1313 17.14L97.3163 17.455C98.5363 17.775 99.1463 18.48 99.1463 19.57C99.1463 20.32 98.8813 20.935 98.3513 21.415C97.8313 21.885 96.9963 22.12 95.8463 22.12C94.7063 22.12 93.8163 21.96 93.1763 21.64C93.1663 21.53 93.1613 21.42 93.1613 21.31C93.1613 20.76 93.2713 20.265 93.4913 19.825H94.7363C94.8663 20.065 94.9513 20.315 94.9913 20.575C95.1913 20.635 95.4763 20.665 95.8463 20.665C96.7263 20.665 97.1663 20.415 97.1663 19.915C97.1663 19.755 97.1063 19.625 96.9863 19.525C96.8663 19.415 96.6313 19.31 96.2813 19.21L95.0963 18.865C94.4863 18.695 94.0113 18.445 93.6713 18.115C93.3313 17.775 93.1613 17.28 93.1613 16.63C93.1613 15.97 93.4263 15.43 93.9563 15.01C94.4863 14.59 95.2413 14.38 96.2213 14.38C97.2113 14.38 98.0463 14.525 98.7263 14.815C98.7363 14.915 98.7413 15.015 98.7413 15.115C98.7413 15.635 98.6313 16.115 98.4113 16.555H97.1813C97.0513 16.325 96.9663 16.085 96.9263 15.835C96.6463 15.765 96.3663 15.73 96.0863 15.73ZM106.973 18.4H106.298V20.17C107.028 20.33 107.483 20.525 107.663 20.755L107.513 22H103.463L103.313 20.755C103.443 20.585 103.718 20.42 104.138 20.26V13.405C103.728 13.255 103.453 13.085 103.313 12.895L103.463 11.65H107.438C108.828 11.67 109.863 11.925 110.543 12.415C111.233 12.895 111.578 13.755 111.578 14.995C111.578 17.265 110.043 18.4 106.973 18.4ZM107.198 13.285H106.298V16.765H107.303C107.983 16.765 108.488 16.63 108.818 16.36C109.158 16.09 109.328 15.625 109.328 14.965C109.328 14.295 109.143 13.85 108.773 13.63C108.413 13.4 107.888 13.285 107.198 13.285ZM115.638 22.12C114.458 22.12 113.583 21.805 113.013 21.175C112.443 20.545 112.158 19.595 112.158 18.325C112.158 17.045 112.473 16.07 113.103 15.4C113.743 14.72 114.658 14.38 115.848 14.38C117.038 14.38 117.918 14.68 118.488 15.28C119.068 15.88 119.358 16.82 119.358 18.1C119.358 19.37 119.033 20.36 118.383 21.07C117.743 21.77 116.828 22.12 115.638 22.12ZM114.318 18.19C114.318 19.79 114.798 20.59 115.758 20.59C116.248 20.59 116.608 20.41 116.838 20.05C117.078 19.68 117.198 19.08 117.198 18.25C117.198 16.69 116.708 15.91 115.728 15.91C115.248 15.91 114.893 16.085 114.663 16.435C114.433 16.775 114.318 17.36 114.318 18.19ZM120.307 14.5C120.867 14.37 121.387 14.305 121.867 14.305C122.347 14.305 122.752 14.32 123.082 14.35V20.335C123.472 20.485 123.747 20.655 123.907 20.845L123.757 22H120.307L120.157 20.845C120.297 20.655 120.572 20.485 120.982 20.335V16.165C120.632 16.045 120.357 15.875 120.157 15.655L120.307 14.5ZM122.002 13.465C121.172 13.465 120.757 13.09 120.757 12.34C120.757 11.58 121.172 11.2 122.002 11.2C122.842 11.2 123.262 11.58 123.262 12.34C123.262 13.09 122.842 13.465 122.002 13.465ZM124.657 14.5C125.207 14.38 125.702 14.32 126.142 14.32C126.582 14.32 126.947 14.33 127.237 14.35V15.1C127.487 14.89 127.817 14.72 128.227 14.59C128.647 14.45 129.047 14.38 129.427 14.38C130.407 14.38 131.092 14.61 131.482 15.07C131.882 15.53 132.082 16.325 132.082 17.455V20.335C132.472 20.485 132.747 20.655 132.907 20.845L132.757 22H129.307L129.157 20.845C129.297 20.655 129.572 20.485 129.982 20.335V17.365C129.982 16.825 129.892 16.465 129.712 16.285C129.542 16.095 129.232 16 128.782 16C128.332 16 127.882 16.16 127.432 16.48V20.335C127.822 20.485 128.097 20.655 128.257 20.845L128.107 22H124.657L124.507 20.845C124.647 20.655 124.922 20.485 125.332 20.335V16.165C124.982 16.045 124.707 15.875 124.507 15.655L124.657 14.5ZM136.158 12.61V14.5H138.303V15.76H136.158V19.555C136.158 19.875 136.203 20.11 136.293 20.26C136.383 20.4 136.598 20.47 136.938 20.47C137.278 20.47 137.643 20.395 138.033 20.245L138.483 21.415C137.713 21.805 136.923 22 136.113 22C135.313 22 134.768 21.83 134.478 21.49C134.198 21.14 134.058 20.635 134.058 19.975V15.76H133.383L133.218 14.845C133.378 14.655 133.708 14.465 134.208 14.275C134.328 13.455 134.613 12.9 135.063 12.61H136.158Z" fill="#1E3A8A"/>
<path d="M51.673 35H49.378L49.288 34.253C49.366 34.151 49.531 34.052 49.783 33.956V29.843C49.537 29.753 49.372 29.651 49.288 29.537L49.378 28.79H51.385C52.351 28.79 53.116 29.06 53.68 29.6C54.25 30.14 54.535 30.935 54.535 31.985C54.535 33.029 54.277 33.794 53.761 34.28C53.251 34.76 52.555 35 51.673 35ZM51.079 34.019H51.727C52.177 34.019 52.531 33.884 52.789 33.614C53.053 33.338 53.185 32.807 53.185 32.021C53.185 30.521 52.618 29.771 51.484 29.771H51.079V34.019ZM55.1972 31.166C55.1972 31.076 55.2002 30.98 55.2062 30.878C55.7642 30.578 56.3642 30.428 57.0062 30.428C57.6482 30.428 58.1072 30.551 58.3832 30.797C58.6652 31.037 58.8062 31.439 58.8062 32.003V33.92C59.0162 33.962 59.1812 34.013 59.3012 34.073V34.856C58.9952 35 58.5572 35.072 57.9872 35.072C57.9272 34.916 57.8762 34.727 57.8342 34.505C57.5762 34.883 57.1082 35.072 56.4302 35.072C56.0282 35.072 55.6832 34.955 55.3952 34.721C55.1132 34.487 54.9722 34.169 54.9722 33.767C54.9722 33.365 55.1042 33.05 55.3682 32.822C55.6382 32.588 56.0372 32.471 56.5652 32.471H57.5462V32.039C57.5462 31.571 57.2972 31.337 56.7992 31.337C56.6132 31.337 56.4602 31.355 56.3402 31.391C56.3282 31.643 56.2922 31.838 56.2322 31.976H55.3502C55.2482 31.766 55.1972 31.496 55.1972 31.166ZM56.8172 34.154C57.1232 34.154 57.3662 34.064 57.5462 33.884V33.146H56.9162C56.4842 33.146 56.2682 33.311 56.2682 33.641C56.2682 33.791 56.3132 33.914 56.4032 34.01C56.4992 34.106 56.6372 34.154 56.8172 34.154ZM61.4226 31.238C61.0266 31.238 60.8286 31.355 60.8286 31.589C60.8286 31.811 61.0356 31.976 61.4496 32.084L62.1606 32.273C62.8926 32.465 63.2586 32.888 63.2586 33.542C63.2586 33.992 63.0996 34.361 62.7816 34.649C62.4696 34.931 61.9686 35.072 61.2786 35.072C60.5946 35.072 60.0606 34.976 59.6766 34.784C59.6706 34.718 59.6676 34.652 59.6676 34.586C59.6676 34.256 59.7336 33.959 59.8656 33.695H60.6126C60.6906 33.839 60.7416 33.989 60.7656 34.145C60.8856 34.181 61.0566 34.199 61.2786 34.199C61.8066 34.199 62.0706 34.049 62.0706 33.749C62.0706 33.653 62.0346 33.575 61.9626 33.515C61.8906 33.449 61.7496 33.386 61.5396 33.326L60.8286 33.119C60.4626 33.017 60.1776 32.867 59.9736 32.669C59.7696 32.465 59.6676 32.168 59.6676 31.778C59.6676 31.382 59.8266 31.058 60.1446 30.806C60.4626 30.554 60.9156 30.428 61.5036 30.428C62.0976 30.428 62.5986 30.515 63.0066 30.689C63.0126 30.749 63.0156 30.809 63.0156 30.869C63.0156 31.181 62.9496 31.469 62.8176 31.733H62.0796C62.0016 31.595 61.9506 31.451 61.9266 31.301C61.7586 31.259 61.5906 31.238 61.4226 31.238ZM63.6652 28.61C64.0012 28.532 64.3132 28.493 64.6012 28.493C64.8892 28.493 65.1322 28.502 65.3302 28.52V30.77C65.4742 30.674 65.6662 30.593 65.9062 30.527C66.1462 30.461 66.3592 30.428 66.5452 30.428C67.1392 30.428 67.5502 30.572 67.7782 30.86C68.0062 31.148 68.1202 31.586 68.1202 32.174V34.001C68.3542 34.091 68.5192 34.193 68.6152 34.307L68.5252 35H66.4552L66.3652 34.307C66.4492 34.193 66.6142 34.091 66.8602 34.001V32.219C66.8602 31.895 66.8062 31.679 66.6982 31.571C66.5962 31.457 66.4072 31.4 66.1312 31.4C65.8552 31.4 65.5882 31.496 65.3302 31.688V34.001C65.5642 34.091 65.7292 34.193 65.8252 34.307L65.7352 35H63.6652L63.5752 34.307C63.6592 34.193 63.8242 34.091 64.0702 34.001V29.609C63.8602 29.537 63.6952 29.435 63.5752 29.303L63.6652 28.61ZM68.7413 28.61C69.0773 28.532 69.3893 28.493 69.6773 28.493C69.9653 28.493 70.2083 28.502 70.4063 28.52V30.77C70.5323 30.68 70.7003 30.602 70.9103 30.536C71.1203 30.464 71.3213 30.428 71.5133 30.428C72.1673 30.428 72.6263 30.596 72.8903 30.932C73.1543 31.268 73.2863 31.841 73.2863 32.651C73.2863 33.101 73.2233 33.491 73.0973 33.821C72.9773 34.145 72.8123 34.394 72.6023 34.568C72.2063 34.904 71.7383 35.072 71.1983 35.072C70.7903 35.072 70.3883 34.97 69.9923 34.766C69.8783 34.922 69.7463 35 69.5963 35H69.1463V29.609C68.9363 29.537 68.7713 29.435 68.6513 29.303L68.7413 28.61ZM71.1263 34.154C71.7023 34.154 71.9903 33.671 71.9903 32.705C71.9903 32.195 71.9393 31.85 71.8373 31.67C71.7413 31.484 71.5703 31.391 71.3243 31.391C70.9523 31.391 70.6463 31.49 70.4063 31.688V34.001C70.6643 34.103 70.9043 34.154 71.1263 34.154ZM75.8432 35.072C75.1352 35.072 74.6102 34.883 74.2682 34.505C73.9262 34.127 73.7552 33.557 73.7552 32.795C73.7552 32.027 73.9442 31.442 74.3222 31.04C74.7062 30.632 75.2552 30.428 75.9692 30.428C76.6832 30.428 77.2112 30.608 77.5532 30.968C77.9012 31.328 78.0752 31.892 78.0752 32.66C78.0752 33.422 77.8802 34.016 77.4902 34.442C77.1062 34.862 76.5572 35.072 75.8432 35.072ZM75.0512 32.714C75.0512 33.674 75.3392 34.154 75.9152 34.154C76.2092 34.154 76.4252 34.046 76.5632 33.83C76.7072 33.608 76.7792 33.248 76.7792 32.75C76.7792 31.814 76.4852 31.346 75.8972 31.346C75.6092 31.346 75.3962 31.451 75.2582 31.661C75.1202 31.865 75.0512 32.216 75.0512 32.714ZM78.7167 31.166C78.7167 31.076 78.7197 30.98 78.7257 30.878C79.2837 30.578 79.8837 30.428 80.5257 30.428C81.1677 30.428 81.6267 30.551 81.9027 30.797C82.1847 31.037 82.3257 31.439 82.3257 32.003V33.92C82.5357 33.962 82.7007 34.013 82.8207 34.073V34.856C82.5147 35 82.0767 35.072 81.5067 35.072C81.4467 34.916 81.3957 34.727 81.3537 34.505C81.0957 34.883 80.6277 35.072 79.9497 35.072C79.5477 35.072 79.2027 34.955 78.9147 34.721C78.6327 34.487 78.4917 34.169 78.4917 33.767C78.4917 33.365 78.6237 33.05 78.8877 32.822C79.1577 32.588 79.5567 32.471 80.0847 32.471H81.0657V32.039C81.0657 31.571 80.8167 31.337 80.3187 31.337C80.1327 31.337 79.9797 31.355 79.8597 31.391C79.8477 31.643 79.8117 31.838 79.7517 31.976H78.8697C78.7677 31.766 78.7167 31.496 78.7167 31.166ZM80.3367 34.154C80.6427 34.154 80.8857 34.064 81.0657 33.884V33.146H80.4357C80.0037 33.146 79.7877 33.311 79.7877 33.641C79.7877 33.791 79.8327 33.914 79.9227 34.01C80.0187 34.106 80.1567 34.154 80.3367 34.154ZM85.8422 31.607C85.3862 31.607 85.0712 31.694 84.8972 31.868V33.929C85.3832 34.019 85.7162 34.145 85.8962 34.307L85.8062 35H83.2322L83.1422 34.307C83.2262 34.193 83.3912 34.091 83.6372 34.001V31.499C83.4272 31.427 83.2622 31.325 83.1422 31.193L83.2322 30.5C83.5622 30.428 83.8592 30.392 84.1232 30.392C84.3872 30.392 84.6062 30.398 84.7802 30.41V30.977C84.9182 30.815 85.0952 30.683 85.3112 30.581C85.5272 30.473 85.7222 30.419 85.8962 30.419C86.0762 30.419 86.1992 30.434 86.2652 30.464L86.2382 31.634C86.1182 31.616 85.9862 31.607 85.8422 31.607ZM88.9714 28.61C89.3134 28.532 89.6404 28.493 89.9524 28.493C90.2644 28.493 90.5314 28.502 90.7534 28.52V33.92C90.9334 33.95 91.0984 34.001 91.2484 34.073V34.784C90.8884 34.976 90.4324 35.072 89.8804 35.072C89.8204 35.042 89.7604 34.988 89.7004 34.91C89.6464 34.832 89.6164 34.757 89.6104 34.685C89.4784 34.793 89.3074 34.886 89.0974 34.964C88.8874 35.036 88.6804 35.072 88.4764 35.072C87.8284 35.072 87.3574 34.898 87.0634 34.55C86.7754 34.196 86.6314 33.62 86.6314 32.822C86.6314 31.916 86.8534 31.28 87.2974 30.914C87.6874 30.59 88.1674 30.428 88.7374 30.428C88.9894 30.428 89.2414 30.458 89.4934 30.518V29.627C89.2174 29.549 89.0134 29.441 88.8814 29.303L88.9714 28.61ZM88.6654 34.154C89.0074 34.154 89.2834 34.052 89.4934 33.848V31.436C89.2474 31.376 88.9864 31.346 88.7104 31.346C88.4344 31.346 88.2334 31.469 88.1074 31.715C87.9874 31.955 87.9274 32.318 87.9274 32.804C87.9274 33.284 87.9874 33.629 88.1074 33.839C88.2274 34.049 88.4134 34.154 88.6654 34.154ZM95.8951 32.84H95.4901V33.902C95.9281 33.998 96.2011 34.115 96.3091 34.253L96.2191 35H93.7891L93.6991 34.253C93.7771 34.151 93.9421 34.052 94.1941 33.956V29.843C93.9481 29.753 93.7831 29.651 93.6991 29.537L93.7891 28.79H96.1741C97.0081 28.802 97.6291 28.955 98.0371 29.249C98.4511 29.537 98.6581 30.053 98.6581 30.797C98.6581 32.159 97.7371 32.84 95.8951 32.84ZM96.0301 29.771H95.4901V31.859H96.0931C96.5011 31.859 96.8041 31.778 97.0021 31.616C97.2061 31.454 97.3081 31.175 97.3081 30.779C97.3081 30.377 97.1971 30.11 96.9751 29.978C96.7591 29.84 96.4441 29.771 96.0301 29.771ZM99.2831 31.166C99.2831 31.076 99.2861 30.98 99.2921 30.878C99.8501 30.578 100.45 30.428 101.092 30.428C101.734 30.428 102.193 30.551 102.469 30.797C102.751 31.037 102.892 31.439 102.892 32.003V33.92C103.102 33.962 103.267 34.013 103.387 34.073V34.856C103.081 35 102.643 35.072 102.073 35.072C102.013 34.916 101.962 34.727 101.92 34.505C101.662 34.883 101.194 35.072 100.516 35.072C100.114 35.072 99.7691 34.955 99.4811 34.721C99.1991 34.487 99.0581 34.169 99.0581 33.767C99.0581 33.365 99.1901 33.05 99.4541 32.822C99.7241 32.588 100.123 32.471 100.651 32.471H101.632V32.039C101.632 31.571 101.383 31.337 100.885 31.337C100.699 31.337 100.546 31.355 100.426 31.391C100.414 31.643 100.378 31.838 100.318 31.976H99.4361C99.3341 31.766 99.2831 31.496 99.2831 31.166ZM100.903 34.154C101.209 34.154 101.452 34.064 101.632 33.884V33.146H101.002C100.57 33.146 100.354 33.311 100.354 33.641C100.354 33.791 100.399 33.914 100.489 34.01C100.585 34.106 100.723 34.154 100.903 34.154ZM103.799 30.5C104.129 30.428 104.426 30.392 104.69 30.392C104.954 30.392 105.173 30.398 105.347 30.41V30.86C105.497 30.734 105.695 30.632 105.941 30.554C106.193 30.47 106.433 30.428 106.661 30.428C107.249 30.428 107.66 30.566 107.894 30.842C108.134 31.118 108.254 31.595 108.254 32.273V34.001C108.488 34.091 108.653 34.193 108.749 34.307L108.659 35H106.589L106.499 34.307C106.583 34.193 106.748 34.091 106.994 34.001V32.219C106.994 31.895 106.94 31.679 106.832 31.571C106.73 31.457 106.544 31.4 106.274 31.4C106.004 31.4 105.734 31.496 105.464 31.688V34.001C105.698 34.091 105.863 34.193 105.959 34.307L105.869 35H103.799L103.709 34.307C103.793 34.193 103.958 34.091 104.204 34.001V31.499C103.994 31.427 103.829 31.325 103.709 31.193L103.799 30.5ZM111.221 35.072C110.501 35.072 109.958 34.88 109.592 34.496C109.232 34.112 109.052 33.554 109.052 32.822C109.052 32.378 109.115 31.997 109.241 31.679C109.367 31.355 109.538 31.106 109.754 30.932C110.174 30.596 110.663 30.428 111.221 30.428C111.779 30.428 112.205 30.572 112.499 30.86C112.799 31.142 112.949 31.652 112.949 32.39C112.949 32.822 112.736 33.038 112.31 33.038H110.357C110.381 33.416 110.477 33.683 110.645 33.839C110.819 33.995 111.092 34.073 111.464 34.073C111.668 34.073 111.863 34.049 112.049 34.001C112.235 33.953 112.37 33.905 112.454 33.857L112.58 33.785L112.85 34.505C112.814 34.547 112.76 34.601 112.688 34.667C112.622 34.727 112.448 34.811 112.166 34.919C111.89 35.021 111.575 35.072 111.221 35.072ZM111.788 32.237C111.8 32.153 111.806 32.051 111.806 31.931C111.806 31.811 111.758 31.685 111.662 31.553C111.566 31.415 111.398 31.346 111.158 31.346C110.924 31.346 110.744 31.418 110.618 31.562C110.492 31.706 110.408 31.949 110.366 32.291L111.788 32.237ZM113.394 28.61C113.73 28.532 114.042 28.493 114.33 28.493C114.618 28.493 114.861 28.502 115.059 28.52V34.001C115.293 34.091 115.458 34.193 115.554 34.307L115.464 35H113.394L113.304 34.307C113.388 34.193 113.553 34.091 113.799 34.001V29.609C113.589 29.537 113.424 29.435 113.304 29.303L113.394 28.61Z" fill="#15285E"/>
<path fill-rule="evenodd" clip-rule="evenodd" d="M16.4707 44.6396V38.466C20.4922 38.466 24.3489 36.9636 27.1925 34.2893C30.0361 31.615 31.6337 27.9878 31.6337 24.2057C31.6337 20.4237 30.0361 16.7965 27.1925 14.1222C24.3489 11.4479 20.4922 9.94543 16.4707 9.94543V4.28772L16.4707 4.28774L16.4707 44.6396ZM19.5688 47.1988C23.368 49.3108 28.2498 48.7508 31.475 45.5188L45.4217 31.5423C49.3228 27.6329 49.3228 21.2945 45.4217 17.3851L31.475 3.40855C28.4764 0.403586 24.0458 -0.291608 20.3847 1.32297C25.4702 2.09232 30.2079 4.34811 33.8966 7.81723C38.5182 12.1637 41.1146 18.0589 41.1146 24.2057C41.1146 30.3526 38.5182 36.2477 33.8966 40.5942C30.0113 44.2482 24.9623 46.5561 19.5688 47.1988ZM7.70838 35.8586V13.0688L3.40126 17.3851C-0.499807 21.2945 -0.499801 27.6329 3.40127 31.5423L7.70838 35.8586Z" fill="#11EC0D"/>
<rect x="18.8438" y="18.4115" width="3.34062" height="13.9061" fill="white"/>
<path d="M28.9792 23.0469C28.9792 25.7326 26.8969 27.8411 24.4115 27.8411C21.926 27.8411 19.8438 25.7326 19.8438 23.0469C19.8438 20.3612 21.926 18.2527 24.4115 18.2527C26.8969 18.2527 28.9792 20.3612 28.9792 23.0469Z" fill="white" stroke="#11EC0D" stroke-width="2"/>
</svg>
