<svg width="103" height="48" viewBox="0 0 103 48" fill="none" xmlns="http://www.w3.org/2000/svg">
<path d="M52.752 20H48.672L48.512 18.672C48.6507 18.4907 48.944 18.3147 49.392 18.144V10.832C48.9547 10.672 48.6613 10.4907 48.512 10.288L48.672 8.96H52.24C53.9573 8.96 55.3173 9.44 56.32 10.4C57.3333 11.36 57.84 12.7733 57.84 14.64C57.84 16.496 57.3813 17.856 56.464 18.72C55.5573 19.5733 54.32 20 52.752 20ZM51.696 18.256H52.848C53.648 18.256 54.2773 18.016 54.736 17.536C55.2053 17.0453 55.44 16.1013 55.44 14.704C55.44 12.0373 54.432 10.704 52.416 10.704H51.696V18.256ZM62.3932 20.128C61.1346 20.128 60.2013 19.792 59.5933 19.12C58.9853 18.448 58.6813 17.4347 58.6813 16.08C58.6813 14.7147 59.0173 13.6747 59.6893 12.96C60.3719 12.2347 61.3479 11.872 62.6173 11.872C63.8866 11.872 64.8253 12.192 65.4333 12.832C66.0519 13.472 66.3612 14.4747 66.3612 15.84C66.3612 17.1947 66.0146 18.2507 65.3213 19.008C64.6386 19.7547 63.6626 20.128 62.3932 20.128ZM60.9853 15.936C60.9853 17.6427 61.4973 18.496 62.5213 18.496C63.0439 18.496 63.4279 18.304 63.6733 17.92C63.9293 17.5253 64.0573 16.8853 64.0573 16C64.0573 14.336 63.5346 13.504 62.4893 13.504C61.9773 13.504 61.5986 13.6907 61.3533 14.064C61.1079 14.4267 60.9853 15.0507 60.9853 15.936ZM70.9416 13.504C69.9603 13.504 69.4696 14.3467 69.4696 16.032C69.4696 16.8853 69.603 17.4827 69.8696 17.824C70.147 18.1547 70.5416 18.32 71.0536 18.32C71.8643 18.32 72.579 18.2453 73.1976 18.096L73.6776 19.328C73.3363 19.552 72.8776 19.744 72.3016 19.904C71.7256 20.0533 71.1656 20.128 70.6216 20.128C68.3176 20.128 67.1656 18.7947 67.1656 16.128C67.1656 14.5707 67.5656 13.4507 68.3656 12.768C69.0803 12.1707 69.9496 11.872 70.9736 11.872C71.9976 11.872 72.851 12.064 73.5336 12.448C73.5443 12.5547 73.5496 12.656 73.5496 12.752C73.5496 13.36 73.411 13.936 73.1336 14.48H71.7256C71.5763 14.2133 71.4856 13.8933 71.4536 13.52C71.3256 13.5093 71.155 13.504 70.9416 13.504ZM77.2968 9.984V12H79.5848V13.344H77.2968V17.392C77.2968 17.7333 77.3448 17.984 77.4408 18.144C77.5368 18.2933 77.7661 18.368 78.1288 18.368C78.4914 18.368 78.8808 18.288 79.2968 18.128L79.7768 19.376C78.9554 19.792 78.1128 20 77.2488 20C76.3954 20 75.8141 19.8187 75.5048 19.456C75.2061 19.0827 75.0568 18.544 75.0568 17.84V13.344H74.3368L74.1608 12.368C74.3314 12.1653 74.6834 11.9627 75.2168 11.76C75.3448 10.8853 75.6488 10.2933 76.1288 9.984H77.2968ZM84.0339 20.128C82.7752 20.128 81.8419 19.792 81.2339 19.12C80.6259 18.448 80.3219 17.4347 80.3219 16.08C80.3219 14.7147 80.6579 13.6747 81.3299 12.96C82.0125 12.2347 82.9885 11.872 84.2579 11.872C85.5272 11.872 86.4659 12.192 87.0739 12.832C87.6925 13.472 88.0019 14.4747 88.0019 15.84C88.0019 17.1947 87.6552 18.2507 86.9619 19.008C86.2792 19.7547 85.3032 20.128 84.0339 20.128ZM82.6259 15.936C82.6259 17.6427 83.1379 18.496 84.1619 18.496C84.6845 18.496 85.0685 18.304 85.3139 17.92C85.5699 17.5253 85.6979 16.8853 85.6979 16C85.6979 14.336 85.1752 13.504 84.1299 13.504C83.6179 13.504 83.2392 13.6907 82.9939 14.064C82.7485 14.4267 82.6259 15.0507 82.6259 15.936ZM93.6223 13.968C92.8116 13.968 92.2516 14.1227 91.9423 14.432V18.096C92.8063 18.256 93.3983 18.48 93.7183 18.768L93.5583 20H88.9823L88.8223 18.768C88.9716 18.5653 89.2649 18.384 89.7023 18.224V13.776C89.3289 13.648 89.0356 13.4667 88.8223 13.232L88.9823 12C89.5689 11.872 90.0969 11.808 90.5663 11.808C91.0356 11.808 91.4249 11.8187 91.7343 11.84V12.848C91.9796 12.56 92.2943 12.3253 92.6783 12.144C93.0623 11.952 93.4089 11.856 93.7183 11.856C94.0383 11.856 94.2569 11.8827 94.3743 11.936L94.3263 14.016C94.1129 13.984 93.8783 13.968 93.6223 13.968ZM98.2254 13.312C97.5214 13.312 97.1694 13.52 97.1694 13.936C97.1694 14.3307 97.5374 14.624 98.2734 14.816L99.5374 15.152C100.839 15.4933 101.489 16.2453 101.489 17.408C101.489 18.208 101.207 18.864 100.641 19.376C100.087 19.8773 99.196 20.128 97.9694 20.128C96.7534 20.128 95.804 19.9573 95.1214 19.616C95.1107 19.4987 95.1054 19.3813 95.1054 19.264C95.1054 18.6773 95.2227 18.1493 95.4574 17.68H96.7854C96.924 17.936 97.0147 18.2027 97.0574 18.48C97.2707 18.544 97.5747 18.576 97.9694 18.576C98.908 18.576 99.3774 18.3093 99.3774 17.776C99.3774 17.6053 99.3134 17.4667 99.1854 17.36C99.0574 17.2427 98.8067 17.1307 98.4334 17.024L97.1694 16.656C96.5187 16.4747 96.012 16.208 95.6494 15.856C95.2867 15.4933 95.1054 14.9653 95.1054 14.272C95.1054 13.568 95.388 12.992 95.9534 12.544C96.5187 12.096 97.324 11.872 98.3694 11.872C99.4254 11.872 100.316 12.0267 101.041 12.336C101.052 12.4427 101.057 12.5493 101.057 12.656C101.057 13.2107 100.94 13.7227 100.705 14.192H99.3934C99.2547 13.9467 99.164 13.6907 99.1214 13.424C98.8227 13.3493 98.524 13.312 98.2254 13.312ZM52.416 36.16H51.696V38.048C52.4747 38.2187 52.96 38.4267 53.152 38.672L52.992 40H48.672L48.512 38.672C48.6507 38.4907 48.944 38.3147 49.392 38.144V30.832C48.9547 30.672 48.6613 30.4907 48.512 30.288L48.672 28.96H52.912C54.3947 28.9813 55.4987 29.2533 56.224 29.776C56.96 30.288 57.328 31.2053 57.328 32.528C57.328 34.9493 55.6907 36.16 52.416 36.16ZM52.656 30.704H51.696V34.416H52.768C53.4933 34.416 54.032 34.272 54.384 33.984C54.7467 33.696 54.928 33.2 54.928 32.496C54.928 31.7813 54.7307 31.3067 54.336 31.072C53.952 30.8267 53.392 30.704 52.656 30.704ZM61.6589 40.128C60.4002 40.128 59.4669 39.792 58.8589 39.12C58.2509 38.448 57.9469 37.4347 57.9469 36.08C57.9469 34.7147 58.2829 33.6747 58.9549 32.96C59.6375 32.2347 60.6135 31.872 61.8829 31.872C63.1522 31.872 64.0909 32.192 64.6989 32.832C65.3175 33.472 65.6269 34.4747 65.6269 35.84C65.6269 37.1947 65.2802 38.2507 64.5869 39.008C63.9042 39.7547 62.9282 40.128 61.6589 40.128ZM60.2509 35.936C60.2509 37.6427 60.7629 38.496 61.7869 38.496C62.3095 38.496 62.6935 38.304 62.9389 37.92C63.1949 37.5253 63.3229 36.8853 63.3229 36C63.3229 34.336 62.8002 33.504 61.7549 33.504C61.2429 33.504 60.8642 33.6907 60.6189 34.064C60.3735 34.4267 60.2509 35.0507 60.2509 35.936ZM66.6393 32C67.2366 31.8613 67.7913 31.792 68.3033 31.792C68.8153 31.792 69.2473 31.808 69.5993 31.84V38.224C70.0153 38.384 70.3086 38.5653 70.4793 38.768L70.3193 40H66.6393L66.4793 38.768C66.6286 38.5653 66.9219 38.384 67.3593 38.224V33.776C66.9859 33.648 66.6926 33.4667 66.4793 33.232L66.6393 32ZM68.4473 30.896C67.5619 30.896 67.1193 30.496 67.1193 29.696C67.1193 28.8853 67.5619 28.48 68.4473 28.48C69.3433 28.48 69.7913 28.8853 69.7913 29.696C69.7913 30.496 69.3433 30.896 68.4473 30.896ZM71.2791 32C71.8658 31.872 72.3938 31.808 72.8631 31.808C73.3325 31.808 73.7218 31.8187 74.0311 31.84V32.64C74.2978 32.416 74.6498 32.2347 75.0871 32.096C75.5351 31.9467 75.9618 31.872 76.3671 31.872C77.4125 31.872 78.1431 32.1173 78.5591 32.608C78.9858 33.0987 79.1991 33.9467 79.1991 35.152V38.224C79.6151 38.384 79.9085 38.5653 80.0791 38.768L79.9191 40H76.2391L76.0791 38.768C76.2285 38.5653 76.5218 38.384 76.9591 38.224V35.056C76.9591 34.48 76.8631 34.096 76.6711 33.904C76.4898 33.7013 76.1591 33.6 75.6791 33.6C75.1991 33.6 74.7191 33.7707 74.2391 34.112V38.224C74.6551 38.384 74.9485 38.5653 75.1191 38.768L74.9591 40H71.2791L71.1191 38.768C71.2685 38.5653 71.5618 38.384 71.9991 38.224V33.776C71.6258 33.648 71.3325 33.4667 71.1191 33.232L71.2791 32ZM83.5468 29.984V32H85.8348V33.344H83.5468V37.392C83.5468 37.7333 83.5948 37.984 83.6908 38.144C83.7868 38.2933 84.0161 38.368 84.3788 38.368C84.7414 38.368 85.1308 38.288 85.5468 38.128L86.0268 39.376C85.2054 39.792 84.3628 40 83.4988 40C82.6454 40 82.0641 39.8187 81.7548 39.456C81.4561 39.0827 81.3068 38.544 81.3068 37.84V33.344H80.5868L80.4108 32.368C80.5814 32.1653 80.9334 31.9627 81.4668 31.76C81.5948 30.8853 81.8988 30.2933 82.3788 29.984H83.5468Z" fill="#1E3A8A"/>
<path fill-rule="evenodd" clip-rule="evenodd" d="M15.9952 44.1631V37.9895C20.0167 37.9895 23.8735 36.4871 26.7171 33.8128C29.5607 31.1385 31.1582 27.5113 31.1582 23.7292C31.1582 19.9472 29.5607 16.32 26.7171 13.6457C23.8735 10.9714 20.0167 9.46893 15.9952 9.46893V3.81122L15.9952 3.81124L15.9952 44.1631ZM19.0933 46.7223C22.8926 48.8343 27.7744 48.2743 30.9995 45.0423L44.9462 31.0658C48.8473 27.1564 48.8473 20.818 44.9462 16.9086L30.9995 2.93205C28.001 -0.0729159 23.5704 -0.76811 19.9092 0.846465C24.9947 1.61582 29.7324 3.87161 33.4211 7.34073C38.0427 11.6872 40.6392 17.5824 40.6392 23.7292C40.6392 29.8761 38.0427 35.7712 33.4211 40.1177C29.5358 43.7717 24.4868 46.0796 19.0933 46.7223ZM7.23292 35.3821V12.5923L2.9258 16.9086C-0.975271 20.818 -0.975264 27.1564 2.92581 31.0658L7.23292 35.3821Z" fill="#11EC0D"/>
<rect x="18.3683" y="17.935" width="3.34062" height="13.9061" fill="white"/>
<path d="M28.5037 22.5704C28.5037 25.2561 26.4215 27.3646 23.936 27.3646C21.4506 27.3646 19.3683 25.2561 19.3683 22.5704C19.3683 19.8847 21.4506 17.7762 23.936 17.7762C26.4215 17.7762 28.5037 19.8847 28.5037 22.5704Z" fill="white" stroke="#11EC0D" stroke-width="2"/>
</svg>
