<svg width="137" height="71" viewBox="0 0 137 71" fill="none" xmlns="http://www.w3.org/2000/svg">
<mask id="path-1-inside-1_121_4" fill="white">
<path fill-rule="evenodd" clip-rule="evenodd" d="M24.5 10.8553L25 11.3553L10.8579 25.4975L10.3579 24.9975L0 35.3553L9.25 44.6053L9.64214 44.2132L23.7843 58.3553L23.3921 58.7475L35.3553 70.7107L47.7132 58.3528L47.2157 57.8553L61.3579 43.7132L61.8553 44.2107L70.7107 35.3553L59.4975 24.1421L59.1421 24.4975L45 10.3553L45.3553 10L35.3553 0L24.5 10.8553Z"/>
</mask>
<path fill-rule="evenodd" clip-rule="evenodd" d="M24.5 10.8553L25 11.3553L10.8579 25.4975L10.3579 24.9975L0 35.3553L9.25 44.6053L9.64214 44.2132L23.7843 58.3553L23.3921 58.7475L35.3553 70.7107L47.7132 58.3528L47.2157 57.8553L61.3579 43.7132L61.8553 44.2107L70.7107 35.3553L59.4975 24.1421L59.1421 24.4975L45 10.3553L45.3553 10L35.3553 0L24.5 10.8553Z" fill="white"/>
<path d="M25 11.3553L25.7071 12.0624L26.4142 11.3553L25.7071 10.6482L25 11.3553ZM24.5 10.8553L23.7929 10.1482L23.0858 10.8553L23.7929 11.5624L24.5 10.8553ZM10.8579 25.4975L10.1508 26.2046L10.8579 26.9117L11.565 26.2046L10.8579 25.4975ZM10.3579 24.9975L11.065 24.2904L10.3579 23.5833L9.65076 24.2904L10.3579 24.9975ZM0 35.3553L-0.707107 34.6482L-1.41421 35.3553L-0.707107 36.0624L0 35.3553ZM9.25 44.6053L8.54289 45.3124L9.25 46.0196L9.95711 45.3124L9.25 44.6053ZM9.64214 44.2132L10.3492 43.5061L9.64214 42.799L8.93503 43.5061L9.64214 44.2132ZM23.7843 58.3553L24.4914 59.0624L25.1985 58.3553L24.4914 57.6482L23.7843 58.3553ZM23.3921 58.7475L22.685 58.0404L21.9779 58.7475L22.685 59.4546L23.3921 58.7475ZM35.3553 70.7107L34.6482 71.4178L35.3553 72.1249L36.0624 71.4178L35.3553 70.7107ZM47.7132 58.3528L48.4203 59.0599L49.1274 58.3528L48.4203 57.6457L47.7132 58.3528ZM47.2157 57.8553L46.5086 57.1482L45.8015 57.8553L46.5086 58.5624L47.2157 57.8553ZM61.3579 43.7132L62.065 43.0061L61.3579 42.299L60.6508 43.0061L61.3579 43.7132ZM61.8553 44.2107L61.1482 44.9178L61.8553 45.6249L62.5624 44.9178L61.8553 44.2107ZM70.7107 35.3553L71.4178 36.0624L72.1249 35.3553L71.4178 34.6482L70.7107 35.3553ZM59.4975 24.1421L60.2046 23.435L59.4975 22.7279L58.7904 23.435L59.4975 24.1421ZM59.1421 24.4975L58.435 25.2046L59.1421 25.9117L59.8492 25.2046L59.1421 24.4975ZM45 10.3553L44.2929 9.64823L43.5858 10.3553L44.2929 11.0624L45 10.3553ZM45.3553 10L46.0624 10.7071L46.7696 10L46.0624 9.29289L45.3553 10ZM35.3553 0L36.0624 -0.707107L35.3553 -1.41421L34.6482 -0.707107L35.3553 0ZM25.7071 10.6482L25.2071 10.1482L23.7929 11.5624L24.2929 12.0624L25.7071 10.6482ZM11.565 26.2046L25.7071 12.0624L24.2929 10.6482L10.1508 24.7904L11.565 26.2046ZM9.65076 25.7046L10.1508 26.2046L11.565 24.7904L11.065 24.2904L9.65076 25.7046ZM0.707107 36.0624L11.065 25.7046L9.65076 24.2904L-0.707107 34.6482L0.707107 36.0624ZM9.95711 43.8982L0.707107 34.6482L-0.707107 36.0624L8.54289 45.3124L9.95711 43.8982ZM8.93503 43.5061L8.54289 43.8982L9.95711 45.3124L10.3492 44.9203L8.93503 43.5061ZM24.4914 57.6482L10.3492 43.5061L8.93503 44.9203L23.0772 59.0624L24.4914 57.6482ZM24.0992 59.4546L24.4914 59.0624L23.0772 57.6482L22.685 58.0404L24.0992 59.4546ZM36.0624 70.0036L24.0992 58.0404L22.685 59.4546L34.6482 71.4178L36.0624 70.0036ZM47.0061 57.6457L34.6482 70.0036L36.0624 71.4178L48.4203 59.0599L47.0061 57.6457ZM46.5086 58.5624L47.0061 59.0599L48.4203 57.6457L47.9228 57.1482L46.5086 58.5624ZM60.6508 43.0061L46.5086 57.1482L47.9228 58.5624L62.065 44.4203L60.6508 43.0061ZM62.5624 43.5036L62.065 43.0061L60.6508 44.4203L61.1482 44.9178L62.5624 43.5036ZM70.0036 34.6482L61.1482 43.5036L62.5624 44.9178L71.4178 36.0624L70.0036 34.6482ZM58.7904 24.8492L70.0036 36.0624L71.4178 34.6482L60.2046 23.435L58.7904 24.8492ZM59.8492 25.2046L60.2046 24.8492L58.7904 23.435L58.435 23.7904L59.8492 25.2046ZM44.2929 11.0624L58.435 25.2046L59.8492 23.7904L45.7071 9.64823L44.2929 11.0624ZM44.6482 9.29289L44.2929 9.64823L45.7071 11.0624L46.0624 10.7071L44.6482 9.29289ZM34.6482 0.707107L44.6482 10.7071L46.0624 9.29289L36.0624 -0.707107L34.6482 0.707107ZM25.2071 11.5624L36.0624 0.707107L34.6482 -0.707107L23.7929 10.1482L25.2071 11.5624Z" fill="#11EC0D" mask="url(#path-1-inside-1_121_4)"/>
<path fill-rule="evenodd" clip-rule="evenodd" d="M26.4816 58.1293L26.4816 51.1933C30.9997 51.1933 35.3328 49.5054 38.5276 46.5008C41.7224 43.4962 43.5172 39.421 43.5172 35.1719C43.5172 30.9227 41.7224 26.8476 38.5276 23.843C35.3328 20.8384 30.9997 19.1505 26.4816 19.1505L26.4816 12.794V58.1293ZM16.6372 22.6595L10.9258 28.383C7.02474 32.2924 7.02473 38.6309 10.9258 42.5403L16.6372 48.2638V22.6595ZM42.4666 59.9913C38.956 63.5094 33.4826 63.8615 29.579 61.0477C35.7824 60.3911 41.6025 57.7761 46.0596 53.5844C51.252 48.7011 54.169 42.0779 54.169 35.1719C54.169 28.2659 51.252 21.6427 46.0596 16.7594C41.7825 12.7369 36.2501 10.1664 30.3284 9.38517C34.159 7.11819 39.1754 7.63383 42.4666 10.9321L59.8804 28.3831C63.7815 32.2925 63.7814 38.6309 59.8804 42.5403L42.4666 59.9913Z" fill="#11EC0D"/>
<rect x="29.1478" y="28.6621" width="3.75319" height="15.6235" fill="white"/>
<path d="M40.6584 33.8699C40.6584 36.9509 38.2683 39.3797 35.4031 39.3797C32.5379 39.3797 30.1478 36.9509 30.1478 33.8699C30.1478 30.789 32.5379 28.3601 35.4031 28.3601C38.2683 28.3601 40.6584 30.789 40.6584 33.8699Z" fill="white" stroke="#11EC0D" stroke-width="2"/>
<path d="M77.346 29H72.756L72.576 27.506C72.732 27.302 73.062 27.104 73.566 26.912V18.686C73.074 18.506 72.744 18.302 72.576 18.074L72.756 16.58H76.77C78.702 16.58 80.232 17.12 81.36 18.2C82.5 19.28 83.07 20.87 83.07 22.97C83.07 25.058 82.554 26.588 81.522 27.56C80.502 28.52 79.11 29 77.346 29ZM76.158 27.038H77.454C78.354 27.038 79.062 26.768 79.578 26.228C80.106 25.676 80.37 24.614 80.37 23.042C80.37 20.042 79.236 18.542 76.968 18.542H76.158V27.038ZM88.1924 29.144C86.7764 29.144 85.7264 28.766 85.0424 28.01C84.3584 27.254 84.0164 26.114 84.0164 24.59C84.0164 23.054 84.3944 21.884 85.1504 21.08C85.9184 20.264 87.0164 19.856 88.4444 19.856C89.8724 19.856 90.9284 20.216 91.6124 20.936C92.3084 21.656 92.6564 22.784 92.6564 24.32C92.6564 25.844 92.2664 27.032 91.4864 27.884C90.7184 28.724 89.6204 29.144 88.1924 29.144ZM86.6084 24.428C86.6084 26.348 87.1844 27.308 88.3364 27.308C88.9244 27.308 89.3564 27.092 89.6324 26.66C89.9204 26.216 90.0644 25.496 90.0644 24.5C90.0644 22.628 89.4764 21.692 88.3004 21.692C87.7244 21.692 87.2984 21.902 87.0224 22.322C86.7464 22.73 86.6084 23.432 86.6084 24.428ZM97.8093 21.692C96.7053 21.692 96.1533 22.64 96.1533 24.536C96.1533 25.496 96.3033 26.168 96.6033 26.552C96.9153 26.924 97.3593 27.11 97.9353 27.11C98.8473 27.11 99.6513 27.026 100.347 26.858L100.887 28.244C100.503 28.496 99.9873 28.712 99.3393 28.892C98.6913 29.06 98.0613 29.144 97.4493 29.144C94.8573 29.144 93.5613 27.644 93.5613 24.644C93.5613 22.892 94.0113 21.632 94.9113 20.864C95.7153 20.192 96.6933 19.856 97.8453 19.856C98.9973 19.856 99.9573 20.072 100.725 20.504C100.737 20.624 100.743 20.738 100.743 20.846C100.743 21.53 100.587 22.178 100.275 22.79H98.6913C98.5233 22.49 98.4213 22.13 98.3853 21.71C98.2413 21.698 98.0493 21.692 97.8093 21.692ZM104.959 17.732V20H107.533V21.512H104.959V26.066C104.959 26.45 105.013 26.732 105.121 26.912C105.229 27.08 105.487 27.164 105.895 27.164C106.303 27.164 106.741 27.074 107.209 26.894L107.749 28.298C106.825 28.766 105.877 29 104.905 29C103.945 29 103.291 28.796 102.943 28.388C102.607 27.968 102.439 27.362 102.439 26.57V21.512H101.629L101.431 20.414C101.623 20.186 102.019 19.958 102.619 19.73C102.763 18.746 103.105 18.08 103.645 17.732H104.959ZM112.538 29.144C111.122 29.144 110.072 28.766 109.388 28.01C108.704 27.254 108.362 26.114 108.362 24.59C108.362 23.054 108.74 21.884 109.496 21.08C110.264 20.264 111.362 19.856 112.79 19.856C114.218 19.856 115.274 20.216 115.958 20.936C116.654 21.656 117.002 22.784 117.002 24.32C117.002 25.844 116.612 27.032 115.832 27.884C115.064 28.724 113.966 29.144 112.538 29.144ZM110.954 24.428C110.954 26.348 111.53 27.308 112.682 27.308C113.27 27.308 113.702 27.092 113.978 26.66C114.266 26.216 114.41 25.496 114.41 24.5C114.41 22.628 113.822 21.692 112.646 21.692C112.07 21.692 111.644 21.902 111.368 22.322C111.092 22.73 110.954 23.432 110.954 24.428ZM123.325 22.214C122.413 22.214 121.783 22.388 121.435 22.736V26.858C122.407 27.038 123.073 27.29 123.433 27.614L123.253 29H118.105L117.925 27.614C118.093 27.386 118.423 27.182 118.915 27.002V21.998C118.495 21.854 118.165 21.65 117.925 21.386L118.105 20C118.765 19.856 119.359 19.784 119.887 19.784C120.415 19.784 120.853 19.796 121.201 19.82V20.954C121.477 20.63 121.831 20.366 122.263 20.162C122.695 19.946 123.085 19.838 123.433 19.838C123.793 19.838 124.039 19.868 124.171 19.928L124.117 22.268C123.877 22.232 123.613 22.214 123.325 22.214ZM128.504 21.476C127.712 21.476 127.316 21.71 127.316 22.178C127.316 22.622 127.73 22.952 128.558 23.168L129.98 23.546C131.444 23.93 132.176 24.776 132.176 26.084C132.176 26.984 131.858 27.722 131.222 28.298C130.598 28.862 129.596 29.144 128.216 29.144C126.848 29.144 125.78 28.952 125.012 28.568C125 28.436 124.994 28.304 124.994 28.172C124.994 27.512 125.126 26.918 125.39 26.39H126.884C127.04 26.678 127.142 26.978 127.19 27.29C127.43 27.362 127.772 27.398 128.216 27.398C129.272 27.398 129.8 27.098 129.8 26.498C129.8 26.306 129.728 26.15 129.584 26.03C129.44 25.898 129.158 25.772 128.738 25.652L127.316 25.238C126.584 25.034 126.014 24.734 125.606 24.338C125.198 23.93 124.994 23.336 124.994 22.556C124.994 21.764 125.312 21.116 125.948 20.612C126.584 20.108 127.49 19.856 128.666 19.856C129.854 19.856 130.856 20.03 131.672 20.378C131.684 20.498 131.69 20.618 131.69 20.738C131.69 21.362 131.558 21.938 131.294 22.466H129.818C129.662 22.19 129.56 21.902 129.512 21.602C129.176 21.518 128.84 21.476 128.504 21.476Z" fill="#1E3A8A"/>
<path d="M76.968 50.68H76.158V52.804C77.034 52.996 77.58 53.23 77.796 53.506L77.616 55H72.756L72.576 53.506C72.732 53.302 73.062 53.104 73.566 52.912V44.686C73.074 44.506 72.744 44.302 72.576 44.074L72.756 42.58H77.526C79.194 42.604 80.436 42.91 81.252 43.498C82.08 44.074 82.494 45.106 82.494 46.594C82.494 49.318 80.652 50.68 76.968 50.68ZM77.238 44.542H76.158V48.718H77.364C78.18 48.718 78.786 48.556 79.182 48.232C79.59 47.908 79.794 47.35 79.794 46.558C79.794 45.754 79.572 45.22 79.128 44.956C78.696 44.68 78.066 44.542 77.238 44.542ZM87.3662 55.144C85.9502 55.144 84.9002 54.766 84.2162 54.01C83.5322 53.254 83.1902 52.114 83.1902 50.59C83.1902 49.054 83.5682 47.884 84.3242 47.08C85.0922 46.264 86.1902 45.856 87.6182 45.856C89.0462 45.856 90.1022 46.216 90.7862 46.936C91.4822 47.656 91.8302 48.784 91.8302 50.32C91.8302 51.844 91.4402 53.032 90.6602 53.884C89.8922 54.724 88.7942 55.144 87.3662 55.144ZM85.7822 50.428C85.7822 52.348 86.3582 53.308 87.5102 53.308C88.0982 53.308 88.5302 53.092 88.8062 52.66C89.0942 52.216 89.2382 51.496 89.2382 50.5C89.2382 48.628 88.6502 47.692 87.4742 47.692C86.8982 47.692 86.4722 47.902 86.1962 48.322C85.9202 48.73 85.7822 49.432 85.7822 50.428ZM92.9692 46C93.6412 45.844 94.2652 45.766 94.8412 45.766C95.4172 45.766 95.9032 45.784 96.2992 45.82V53.002C96.7672 53.182 97.0972 53.386 97.2892 53.614L97.1092 55H92.9692L92.7892 53.614C92.9572 53.386 93.2872 53.182 93.7792 53.002V47.998C93.3592 47.854 93.0292 47.65 92.7892 47.386L92.9692 46ZM95.0032 44.758C94.0072 44.758 93.5092 44.308 93.5092 43.408C93.5092 42.496 94.0072 42.04 95.0032 42.04C96.0112 42.04 96.5152 42.496 96.5152 43.408C96.5152 44.308 96.0112 44.758 95.0032 44.758ZM98.189 46C98.849 45.856 99.443 45.784 99.971 45.784C100.499 45.784 100.937 45.796 101.285 45.82V46.72C101.585 46.468 101.981 46.264 102.473 46.108C102.977 45.94 103.457 45.856 103.913 45.856C105.089 45.856 105.911 46.132 106.379 46.684C106.859 47.236 107.099 48.19 107.099 49.546V53.002C107.567 53.182 107.897 53.386 108.089 53.614L107.909 55H103.769L103.589 53.614C103.757 53.386 104.087 53.182 104.579 53.002V49.438C104.579 48.79 104.471 48.358 104.255 48.142C104.051 47.914 103.679 47.8 103.139 47.8C102.599 47.8 102.059 47.992 101.519 48.376V53.002C101.987 53.182 102.317 53.386 102.509 53.614L102.329 55H98.189L98.009 53.614C98.177 53.386 98.507 53.182 98.999 53.002V47.998C98.579 47.854 98.249 47.65 98.009 47.386L98.189 46ZM111.99 43.732V46H114.564V47.512H111.99V52.066C111.99 52.45 112.044 52.732 112.152 52.912C112.26 53.08 112.518 53.164 112.926 53.164C113.334 53.164 113.772 53.074 114.24 52.894L114.78 54.298C113.856 54.766 112.908 55 111.936 55C110.976 55 110.322 54.796 109.974 54.388C109.638 53.968 109.47 53.362 109.47 52.57V47.512H108.66L108.462 46.414C108.654 46.186 109.05 45.958 109.65 45.73C109.794 44.746 110.136 44.08 110.676 43.732H111.99Z" fill="#1E3A8A"/>
</svg>
