<svg width="114" height="48" viewBox="0 0 114 48" fill="none" xmlns="http://www.w3.org/2000/svg">
<path d="M56.049 20H51.714L51.544 18.589C51.6913 18.3963 52.003 18.2093 52.479 18.028V10.259C52.0143 10.089 51.7027 9.89633 51.544 9.681L51.714 8.27H55.505C57.3297 8.27 58.7747 8.78 59.84 9.8C60.9167 10.82 61.455 12.3217 61.455 14.305C61.455 16.277 60.9677 17.722 59.993 18.64C59.0297 19.5467 57.715 20 56.049 20ZM54.927 18.147H56.151C57.001 18.147 57.6697 17.892 58.157 17.382C58.6557 16.8607 58.905 15.8577 58.905 14.373C58.905 11.5397 57.834 10.123 55.692 10.123H54.927V18.147ZM66.2928 20.136C64.9555 20.136 63.9638 19.779 63.3178 19.065C62.6718 18.351 62.3488 17.2743 62.3488 15.835C62.3488 14.3843 62.7058 13.2793 63.4198 12.52C64.1452 11.7493 65.1822 11.364 66.5308 11.364C67.8795 11.364 68.8768 11.704 69.5228 12.384C70.1802 13.064 70.5088 14.1293 70.5088 15.58C70.5088 17.0193 70.1405 18.1413 69.4038 18.946C68.6785 19.7393 67.6415 20.136 66.2928 20.136ZM64.7968 15.682C64.7968 17.4953 65.3408 18.402 66.4288 18.402C66.9842 18.402 67.3922 18.198 67.6528 17.79C67.9248 17.3707 68.0608 16.6907 68.0608 15.75C68.0608 13.982 67.5055 13.098 66.3948 13.098C65.8508 13.098 65.4485 13.2963 65.1878 13.693C64.9272 14.0783 64.7968 14.7413 64.7968 15.682ZM75.3755 13.098C74.3328 13.098 73.8115 13.9933 73.8115 15.784C73.8115 16.6907 73.9531 17.3253 74.2365 17.688C74.5311 18.0393 74.9505 18.215 75.4945 18.215C76.3558 18.215 77.1151 18.1357 77.7725 17.977L78.2825 19.286C77.9198 19.524 77.4325 19.728 76.8205 19.898C76.2085 20.0567 75.6135 20.136 75.0355 20.136C72.5875 20.136 71.3635 18.7193 71.3635 15.886C71.3635 14.2313 71.7885 13.0413 72.6385 12.316C73.3978 11.6813 74.3215 11.364 75.4095 11.364C76.4975 11.364 77.4041 11.568 78.1295 11.976C78.1408 12.0893 78.1465 12.197 78.1465 12.299C78.1465 12.945 77.9991 13.557 77.7045 14.135H76.2085C76.0498 13.8517 75.9535 13.5117 75.9195 13.115C75.7835 13.1037 75.6021 13.098 75.3755 13.098ZM82.1278 9.358V11.5H84.5588V12.928H82.1278V17.229C82.1278 17.5917 82.1788 17.858 82.2808 18.028C82.3828 18.1867 82.6265 18.266 83.0118 18.266C83.3971 18.266 83.8108 18.181 84.2528 18.011L84.7628 19.337C83.8901 19.779 82.9948 20 82.0768 20C81.1701 20 80.5525 19.8073 80.2238 19.422C79.9065 19.0253 79.7478 18.453 79.7478 17.705V12.928H78.9828L78.7958 11.891C78.9771 11.6757 79.3511 11.4603 79.9178 11.245C80.0538 10.3157 80.3768 9.68667 80.8868 9.358H82.1278ZM89.286 20.136C87.9487 20.136 86.957 19.779 86.311 19.065C85.665 18.351 85.342 17.2743 85.342 15.835C85.342 14.3843 85.699 13.2793 86.413 12.52C87.1383 11.7493 88.1753 11.364 89.524 11.364C90.8727 11.364 91.87 11.704 92.516 12.384C93.1733 13.064 93.502 14.1293 93.502 15.58C93.502 17.0193 93.1337 18.1413 92.397 18.946C91.6717 19.7393 90.6347 20.136 89.286 20.136ZM87.79 15.682C87.79 17.4953 88.334 18.402 89.422 18.402C89.9773 18.402 90.3853 18.198 90.646 17.79C90.918 17.3707 91.054 16.6907 91.054 15.75C91.054 13.982 90.4987 13.098 89.388 13.098C88.844 13.098 88.4417 13.2963 88.181 13.693C87.9203 14.0783 87.79 14.7413 87.79 15.682ZM99.4736 13.591C98.6123 13.591 98.0173 13.7553 97.6886 14.084V17.977C98.6066 18.147 99.2356 18.385 99.5756 18.691L99.4056 20H94.5436L94.3736 18.691C94.5323 18.4757 94.844 18.283 95.3086 18.113V13.387C94.912 13.251 94.6003 13.0583 94.3736 12.809L94.5436 11.5C95.167 11.364 95.728 11.296 96.2266 11.296C96.7253 11.296 97.139 11.3073 97.4676 11.33V12.401C97.7283 12.095 98.0626 11.8457 98.4706 11.653C98.8786 11.449 99.247 11.347 99.5756 11.347C99.9156 11.347 100.148 11.3753 100.273 11.432L100.222 13.642C99.995 13.608 99.7456 13.591 99.4736 13.591ZM104.364 12.894C103.616 12.894 103.242 13.115 103.242 13.557C103.242 13.9763 103.633 14.288 104.415 14.492L105.758 14.849C107.141 15.2117 107.832 16.0107 107.832 17.246C107.832 18.096 107.532 18.793 106.931 19.337C106.342 19.8697 105.396 20.136 104.092 20.136C102.8 20.136 101.792 19.9547 101.066 19.592C101.055 19.4673 101.049 19.3427 101.049 19.218C101.049 18.5947 101.174 18.0337 101.423 17.535H102.834C102.982 17.807 103.078 18.0903 103.123 18.385C103.35 18.453 103.673 18.487 104.092 18.487C105.09 18.487 105.588 18.2037 105.588 17.637C105.588 17.4557 105.52 17.3083 105.384 17.195C105.248 17.0703 104.982 16.9513 104.585 16.838L103.242 16.447C102.551 16.2543 102.013 15.971 101.627 15.597C101.242 15.2117 101.049 14.6507 101.049 13.914C101.049 13.166 101.35 12.554 101.95 12.078C102.551 11.602 103.407 11.364 104.517 11.364C105.639 11.364 106.586 11.5283 107.356 11.857C107.368 11.9703 107.373 12.0837 107.373 12.197C107.373 12.7863 107.249 13.3303 106.999 13.829H105.605C105.458 13.5683 105.362 13.2963 105.316 13.013C104.999 12.9337 104.682 12.894 104.364 12.894ZM55.416 36.16H54.696V38.048C55.4747 38.2187 55.96 38.4267 56.152 38.672L55.992 40H51.672L51.512 38.672C51.6507 38.4907 51.944 38.3147 52.392 38.144V30.832C51.9547 30.672 51.6613 30.4907 51.512 30.288L51.672 28.96H55.912C57.3947 28.9813 58.4987 29.2533 59.224 29.776C59.96 30.288 60.328 31.2053 60.328 32.528C60.328 34.9493 58.6907 36.16 55.416 36.16ZM55.656 30.704H54.696V34.416H55.768C56.4933 34.416 57.032 34.272 57.384 33.984C57.7467 33.696 57.928 33.2 57.928 32.496C57.928 31.7813 57.7307 31.3067 57.336 31.072C56.952 30.8267 56.392 30.704 55.656 30.704ZM64.6589 40.128C63.4002 40.128 62.4669 39.792 61.8589 39.12C61.2509 38.448 60.9469 37.4347 60.9469 36.08C60.9469 34.7147 61.2829 33.6747 61.9549 32.96C62.6375 32.2347 63.6135 31.872 64.8829 31.872C66.1522 31.872 67.0909 32.192 67.6989 32.832C68.3175 33.472 68.6269 34.4747 68.6269 35.84C68.6269 37.1947 68.2802 38.2507 67.5869 39.008C66.9042 39.7547 65.9282 40.128 64.6589 40.128ZM63.2509 35.936C63.2509 37.6427 63.7629 38.496 64.7869 38.496C65.3095 38.496 65.6935 38.304 65.9389 37.92C66.1949 37.5253 66.3229 36.8853 66.3229 36C66.3229 34.336 65.8002 33.504 64.7549 33.504C64.2429 33.504 63.8642 33.6907 63.6189 34.064C63.3735 34.4267 63.2509 35.0507 63.2509 35.936ZM69.6393 32C70.2366 31.8613 70.7913 31.792 71.3033 31.792C71.8153 31.792 72.2473 31.808 72.5993 31.84V38.224C73.0153 38.384 73.3086 38.5653 73.4793 38.768L73.3193 40H69.6393L69.4793 38.768C69.6286 38.5653 69.9219 38.384 70.3593 38.224V33.776C69.9859 33.648 69.6926 33.4667 69.4793 33.232L69.6393 32ZM71.4473 30.896C70.5619 30.896 70.1193 30.496 70.1193 29.696C70.1193 28.8853 70.5619 28.48 71.4473 28.48C72.3433 28.48 72.7913 28.8853 72.7913 29.696C72.7913 30.496 72.3433 30.896 71.4473 30.896ZM74.2791 32C74.8658 31.872 75.3938 31.808 75.8631 31.808C76.3325 31.808 76.7218 31.8187 77.0311 31.84V32.64C77.2978 32.416 77.6498 32.2347 78.0871 32.096C78.5351 31.9467 78.9618 31.872 79.3671 31.872C80.4125 31.872 81.1431 32.1173 81.5591 32.608C81.9858 33.0987 82.1991 33.9467 82.1991 35.152V38.224C82.6151 38.384 82.9085 38.5653 83.0791 38.768L82.9191 40H79.2391L79.0791 38.768C79.2285 38.5653 79.5218 38.384 79.9591 38.224V35.056C79.9591 34.48 79.8631 34.096 79.6711 33.904C79.4898 33.7013 79.1591 33.6 78.6791 33.6C78.1991 33.6 77.7191 33.7707 77.2391 34.112V38.224C77.6551 38.384 77.9485 38.5653 78.1191 38.768L77.9591 40H74.2791L74.1191 38.768C74.2685 38.5653 74.5618 38.384 74.9991 38.224V33.776C74.6258 33.648 74.3325 33.4667 74.1191 33.232L74.2791 32ZM86.5468 29.984V32H88.8348V33.344H86.5468V37.392C86.5468 37.7333 86.5948 37.984 86.6908 38.144C86.7868 38.2933 87.0161 38.368 87.3788 38.368C87.7414 38.368 88.1308 38.288 88.5468 38.128L89.0268 39.376C88.2054 39.792 87.3628 40 86.4988 40C85.6454 40 85.0641 39.8187 84.7548 39.456C84.4561 39.0827 84.3068 38.544 84.3068 37.84V33.344H83.5868L83.4108 32.368C83.5814 32.1653 83.9334 31.9627 84.4668 31.76C84.5948 30.8853 84.8988 30.2933 85.3788 29.984H86.5468Z" fill="#1E3A8A"/>
<path fill-rule="evenodd" clip-rule="evenodd" d="M15.9952 44.1631V37.9895C20.0167 37.9895 23.8735 36.4871 26.7171 33.8128C29.5607 31.1385 31.1582 27.5113 31.1582 23.7292C31.1582 19.9472 29.5607 16.32 26.7171 13.6457C23.8735 10.9714 20.0167 9.46893 15.9952 9.46893V3.81122L15.9952 3.81124L15.9952 44.1631ZM19.0933 46.7223C22.8926 48.8343 27.7744 48.2743 30.9995 45.0423L44.9462 31.0658C48.8473 27.1564 48.8473 20.818 44.9462 16.9086L30.9995 2.93205C28.001 -0.0729159 23.5704 -0.76811 19.9092 0.846465C24.9947 1.61582 29.7324 3.87161 33.4211 7.34073C38.0427 11.6872 40.6392 17.5824 40.6392 23.7292C40.6392 29.8761 38.0427 35.7712 33.4211 40.1177C29.5358 43.7717 24.4868 46.0796 19.0933 46.7223ZM7.23292 35.3821V12.5923L2.9258 16.9086C-0.975271 20.818 -0.975264 27.1564 2.92581 31.0658L7.23292 35.3821Z" fill="#11EC0D"/>
<rect x="18.3683" y="17.935" width="3.34062" height="13.9061" fill="white"/>
<path d="M28.5037 22.5704C28.5037 25.2561 26.4215 27.3646 23.936 27.3646C21.4506 27.3646 19.3683 25.2561 19.3683 22.5704C19.3683 19.8847 21.4506 17.7762 23.936 17.7762C26.4215 17.7762 28.5037 19.8847 28.5037 22.5704Z" fill="white" stroke="#11EC0D" stroke-width="2"/>
</svg>
