<svg width="48" height="48" viewBox="0 0 48 48" fill="none" xmlns="http://www.w3.org/2000/svg">
<path fill-rule="evenodd" clip-rule="evenodd" d="M15.9952 44.1631V37.9895C20.0167 37.9895 23.8735 36.4871 26.7171 33.8128C29.5607 31.1385 31.1582 27.5113 31.1582 23.7292C31.1582 19.9472 29.5607 16.32 26.7171 13.6457C23.8735 10.9714 20.0167 9.46893 15.9952 9.46893V3.81122L15.9952 3.81124L15.9952 44.1631ZM19.0933 46.7223C22.8926 48.8343 27.7744 48.2743 30.9995 45.0423L44.9462 31.0658C48.8473 27.1564 48.8473 20.818 44.9462 16.9086L30.9995 2.93205C28.001 -0.0729159 23.5704 -0.76811 19.9092 0.846465C24.9947 1.61582 29.7324 3.87161 33.4211 7.34073C38.0427 11.6872 40.6392 17.5824 40.6392 23.7292C40.6392 29.8761 38.0427 35.7712 33.4211 40.1177C29.5358 43.7717 24.4868 46.0796 19.0933 46.7223ZM7.23292 35.3821V12.5923L2.9258 16.9086C-0.975271 20.818 -0.975264 27.1564 2.92581 31.0658L7.23292 35.3821Z" fill="#11EC0D"/>
<rect x="18.3683" y="17.935" width="3.34062" height="13.9061" fill="white"/>
<path d="M28.5037 22.5704C28.5037 25.2561 26.4215 27.3646 23.936 27.3646C21.4506 27.3646 19.3683 25.2561 19.3683 22.5704C19.3683 19.8847 21.4506 17.7762 23.936 17.7762C26.4215 17.7762 28.5037 19.8847 28.5037 22.5704Z" fill="white" stroke="#11EC0D" stroke-width="2"/>
</svg>
